<svg width="20" height="24" viewBox="0 0 20 24" fill="none" xmlns="http://www.w3.org/2000/svg">
<path fill-rule="evenodd" clip-rule="evenodd" d="M7.50178 9.49031C6.98721 9.49031 6.57034 9.89032 6.57034 10.3834V16.1791C6.57034 16.6722 6.98721 17.0722 7.50178 17.0722C8.01636 17.0722 8.43323 16.6722 8.43323 16.1791V10.3834C8.43323 9.89032 8.01636 9.49031 7.50178 9.49031ZM12.3365 9.49031C11.8219 9.49031 11.405 9.89032 11.405 10.3834V16.1791C11.405 16.6722 11.8219 17.0722 12.3365 17.0722C12.851 17.0722 13.2679 16.6722 13.2679 16.1791V10.3834C13.2679 9.89032 12.851 9.49031 12.3365 9.49031ZM15.6638 2.62767C15.6942 2.90894 15.7062 3.22956 15.7108 3.58786C15.8167 3.59889 15.92 3.61102 16.0209 3.62436C17.1734 3.7769 18.1422 4.10429 18.8859 4.87108C19.6298 5.63785 19.9003 6.58807 19.9758 7.70138C20.0486 8.77463 19.9459 10.1349 19.8186 11.8236L19.4589 16.5903C19.3476 18.0674 19.2573 19.2631 19.0569 20.2017C18.8484 21.1786 18.4981 21.9974 17.7789 22.639C17.0598 23.2805 16.1829 23.5566 15.1518 23.6857C14.161 23.8096 12.9109 23.8096 11.3667 23.8096H8.86887C7.36561 23.8096 6.14761 23.8096 5.17973 23.6901C4.17175 23.5655 3.31264 23.2993 2.59973 22.6814C1.88684 22.0635 1.52412 21.2707 1.2934 20.3215C1.07184 19.4101 0.949123 18.248 0.797661 16.8136L0.294285 12.0473C0.111572 10.3176 -0.0354532 8.92563 0.00753432 7.8262C0.0520719 6.6867 0.30311 5.71026 1.05041 4.91734C1.79774 4.1244 2.78551 3.78646 3.96328 3.62911C4.03562 3.61946 4.10927 3.61041 4.18424 3.60193C4.18875 3.23796 4.20055 2.91262 4.23135 2.62767C4.2841 2.13974 4.4005 1.67023 4.70399 1.24535C4.91249 0.953454 5.17559 0.701144 5.47997 0.501179C5.92306 0.210107 6.41271 0.0984642 6.92156 0.0478688C7.40343 -3.95768e-05 7.99727 -2.05256e-05 8.69286 9.03053e-07H11.2035C11.8992 -2.05256e-05 12.4918 -3.95768e-05 12.9737 0.0478688C13.4824 0.0984642 13.9722 0.210107 14.4152 0.501179C14.7195 0.701144 14.9827 0.953454 15.1912 1.24535C15.4947 1.67023 15.611 2.13974 15.6638 2.62767ZM13.8109 2.81185C13.8312 2.99967 13.8412 3.21923 13.846 3.48967C13.2022 3.47734 12.495 3.47735 11.7222 3.47736H8.3714C7.52033 3.47735 6.74729 3.47734 6.04902 3.49304C6.05392 3.22105 6.06393 3.00046 6.08432 2.81185C6.12147 2.46824 6.18487 2.33321 6.24096 2.25468C6.31939 2.14486 6.41838 2.04994 6.53288 1.97472C6.61471 1.92097 6.75544 1.86017 7.1137 1.82455C7.48805 1.78734 7.98325 1.78622 8.73891 1.78622H11.1563C11.9119 1.78622 12.4072 1.78734 12.7814 1.82455C13.1397 1.86017 13.2804 1.92097 13.3623 1.97472C13.4768 2.04994 13.5758 2.14486 13.6542 2.25468C13.7103 2.33321 13.7737 2.46824 13.8109 2.81185ZM4.22034 5.39823C5.21305 5.26561 6.54164 5.26357 8.44337 5.26357H11.6513C13.5043 5.26357 14.7974 5.26558 15.7662 5.39379C16.7082 5.51847 17.19 5.7455 17.5219 6.08759C17.8538 6.42971 18.0552 6.90708 18.1168 7.81724C18.1803 8.75316 18.089 9.99021 17.9554 11.7627L17.6057 16.3991C17.4884 17.9534 17.405 19.0323 17.2319 19.8435C17.064 20.6295 16.8348 21.0415 16.5099 21.3312C16.1852 21.621 15.7402 21.8107 14.9107 21.9145C14.0547 22.0216 12.9264 22.0234 11.3015 22.0234H8.93305C7.35043 22.0234 6.25276 22.0216 5.41776 21.9185C4.60913 21.8186 4.17162 21.636 3.84898 21.3564C3.52631 21.0767 3.29278 20.6776 3.10765 19.916C2.9165 19.1297 2.80409 18.0826 2.64461 16.5725L2.15495 11.936C1.96331 10.1216 1.83156 8.85368 1.86911 7.89312C1.90566 6.95818 2.10008 6.46772 2.43255 6.11495C2.76501 5.76219 3.25416 5.52731 4.22034 5.39823Z" fill="#201F29"/>
</svg>
