<svg width="9" height="11" viewBox="0 0 9 11" fill="none" xmlns="http://www.w3.org/2000/svg">
<path fill-rule="evenodd" clip-rule="evenodd" d="M3.3758 4.38451C3.14424 4.38451 2.95665 4.56932 2.95665 4.79713V7.47472C2.95665 7.70253 3.14424 7.88733 3.3758 7.88733C3.60736 7.88733 3.79496 7.70253 3.79496 7.47472V4.79713C3.79496 4.56932 3.60736 4.38451 3.3758 4.38451ZM5.55144 4.38451C5.31986 4.38451 5.13227 4.56932 5.13227 4.79713V7.47472C5.13227 7.70253 5.31986 7.88733 5.55144 7.88733C5.78297 7.88733 5.97056 7.70253 5.97056 7.47472V4.79713C5.97056 4.56932 5.78297 4.38451 5.55144 4.38451ZM7.04871 1.21398C7.06238 1.34393 7.06778 1.49205 7.06986 1.65759C7.1175 1.66268 7.16402 1.66829 7.20941 1.67445C7.72804 1.74492 8.16398 1.89618 8.49867 2.25043C8.83341 2.60468 8.95514 3.04368 8.98911 3.55803C9.02185 4.05387 8.97567 4.68232 8.91835 5.4625L8.75652 7.66469C8.7064 8.34713 8.66579 8.89955 8.57562 9.33317C8.48179 9.7845 8.32412 10.1628 8.00052 10.4592C7.67691 10.7556 7.28231 10.8831 6.81831 10.9427C6.37247 11 5.80991 11 5.115 11H3.99099C3.31452 11 2.76642 11 2.33088 10.9448C1.87729 10.8873 1.49069 10.7643 1.16988 10.4788C0.849077 10.1933 0.685856 9.82702 0.582029 9.3885C0.482326 8.96742 0.427105 8.43057 0.358947 7.76787L0.132428 5.56584C0.0502074 4.7667 -0.015954 4.12363 0.00339044 3.6157C0.0234323 3.08925 0.136399 2.63813 0.472685 2.27181C0.808982 1.90547 1.25348 1.74934 1.78347 1.67665C1.81603 1.67219 1.84917 1.66801 1.88291 1.66409C1.88494 1.49593 1.89025 1.34563 1.90411 1.21398C1.92785 0.988558 1.98023 0.771644 2.1168 0.575349C2.21062 0.440495 2.32902 0.323928 2.46599 0.231544C2.66537 0.0970693 2.88572 0.0454903 3.1147 0.0221153C3.33154 -1.82845e-05 3.59877 -9.48278e-06 3.91179 4.17209e-07H5.04159C5.35462 -9.48278e-06 5.62131 -1.82845e-05 5.83815 0.0221153C6.06709 0.0454903 6.28748 0.0970693 6.48683 0.231544C6.6238 0.323928 6.7422 0.440495 6.83603 0.575349C6.9726 0.771644 7.02497 0.988558 7.04871 1.21398ZM6.21491 1.29907C6.22403 1.38584 6.22853 1.48728 6.23072 1.61222C5.94097 1.60653 5.62277 1.60653 5.27497 1.60654H3.76713C3.38415 1.60653 3.03628 1.60653 2.72206 1.61378C2.72426 1.48812 2.72877 1.38621 2.73794 1.29907C2.75466 1.14032 2.78319 1.07794 2.80843 1.04166C2.84373 0.990923 2.88827 0.947071 2.9398 0.912317C2.97662 0.887485 3.03995 0.859396 3.20116 0.84294C3.36962 0.825747 3.59246 0.82523 3.93251 0.82523H5.02033C5.36036 0.82523 5.58322 0.825747 5.75164 0.84294C5.91285 0.859396 5.97619 0.887485 6.01303 0.912317C6.06456 0.947071 6.10911 0.990923 6.14438 1.04166C6.16963 1.07794 6.19815 1.14032 6.21491 1.29907ZM1.89915 2.49398C2.34587 2.43271 2.94374 2.43176 3.79952 2.43176H5.24308C6.07693 2.43176 6.65884 2.43269 7.09478 2.49193C7.51868 2.54953 7.73552 2.65441 7.88487 2.81246C8.03421 2.97052 8.12483 3.19106 8.15256 3.61155C8.18113 4.04395 8.14007 4.61546 8.07994 5.43434L7.92255 7.57636C7.86979 8.29444 7.83227 8.79291 7.75436 9.16768C7.67882 9.53079 7.57566 9.72114 7.42946 9.85501C7.28333 9.98888 7.08308 10.0765 6.7098 10.1245C6.3246 10.174 5.81689 10.1748 5.08569 10.1748H4.01987C3.30769 10.1748 2.81374 10.174 2.43799 10.1263C2.07411 10.0802 1.87723 9.99581 1.73204 9.86662C1.58684 9.73742 1.48175 9.55301 1.39844 9.20117C1.31243 8.8379 1.26184 8.35412 1.19008 7.6565L0.969728 5.51442C0.883491 4.67615 0.824203 4.09039 0.841101 3.64661C0.857548 3.21467 0.945034 2.98808 1.09465 2.8251C1.24426 2.66212 1.46437 2.55361 1.89915 2.49398Z" fill="white"/>
</svg>
