<svg width="330" height="299" viewBox="0 0 330 299" fill="none" xmlns="http://www.w3.org/2000/svg">
<path d="M149.538 298.923C141.885 298.923 134.232 298.311 126.732 297.24C91.8351 291.883 59.6928 274.128 36.4279 247.343C12.8569 220.251 0 185.507 0 149.538C0 106.07 18.8262 64.8968 51.7338 36.4279C57.0908 31.8362 62.9071 27.3975 68.8763 23.571C92.9065 8.1121 120.763 0 149.538 0C177.548 0 204.945 7.80598 228.669 22.6527C250.863 36.581 269.077 56.0194 281.475 79.1313C300.454 84.1822 316.219 93.2126 328.311 105.916C329.994 107.753 330.453 110.355 329.535 112.498L261.883 266.322C261.271 267.852 259.893 269.077 258.363 269.536C257.751 269.689 256.985 269.842 256.373 269.842C255.455 269.842 254.383 269.536 253.618 269.23L244.894 264.638C240.149 268.618 235.098 272.291 229.894 275.658C218.415 283.005 206.17 288.668 193.16 292.495C179.078 296.78 164.385 298.923 149.538 298.923Z" fill="white"/>
<path d="M292.954 149.538C292.954 179.538 283.771 207.547 267.853 230.506C256.832 246.424 242.751 260.2 226.374 270.607C215.507 277.495 203.721 283.005 191.17 286.832C178.007 290.811 145.559 244.434 131.018 244.434C123.518 244.434 134.692 292.342 127.651 291.27C58.7747 280.709 6.12256 221.323 6.12256 149.538C6.12256 106.223 25.4079 67.3458 55.7135 41.0197C60.9175 36.581 66.4276 32.4484 72.2439 28.775C94.5904 14.3875 121.07 6.12234 149.538 6.12234C228.823 6.12234 292.954 70.2539 292.954 149.538Z" fill="#412945"/>
<path d="M324.025 110.049L256.374 263.873L164.538 215.966L164.692 214.129L163.008 215.2L84.1827 174.028L82.6521 173.262L74.54 168.977L134.692 25.2547C134.692 25.2547 137.447 25.4077 142.039 26.02C142.651 26.02 143.11 26.173 143.722 26.3261C163.008 29.0811 207.548 39.9483 224.843 80.8149C224.997 81.121 223.313 85.4067 223.313 85.7128C223.313 85.7128 225.609 81.5802 226.374 81.5802C235.098 80.2027 289.74 74.5395 324.025 110.049Z" fill="#F7EDE5"/>
<path d="M226.374 81.2741L164.538 215.813L163.007 215.047L224.843 80.6619C224.996 80.968 225.149 81.2741 225.149 81.5802C225.149 81.5802 225.608 81.4272 226.374 81.2741Z" fill="#412945"/>
<path d="M143.722 26.173L84.1821 174.028L83.5699 175.405C83.4169 175.711 83.1107 176.017 82.8046 176.017C82.6516 176.017 82.6515 176.017 82.4985 176.017C82.0393 175.864 81.8863 175.405 82.0393 174.946L82.6516 173.415L142.038 26.173C142.497 26.02 143.11 26.173 143.722 26.173Z" fill="#412945"/>
<path d="M211.986 88.927C211.68 88.927 211.374 88.774 211.221 88.4678C192.701 57.55 145.559 48.0604 144.947 48.0604C144.487 47.9073 144.181 47.4482 144.334 46.989C144.487 46.5298 144.946 46.2237 145.406 46.3768C145.559 46.3768 157.65 48.8257 171.885 54.948C185.048 60.7643 202.803 71.0192 212.751 87.5495C213.058 88.0087 212.904 88.4679 212.445 88.774C212.292 88.927 212.139 88.927 211.986 88.927Z" fill="#412945"/>
<path d="M204.027 106.682C203.721 106.682 203.414 106.529 203.261 106.223C183.823 76.8354 137.752 67.0397 137.293 66.8866C136.834 66.7335 136.528 66.2744 136.681 65.8152C136.834 65.356 137.293 65.0499 137.752 65.203C138.212 65.356 184.894 75.3048 204.792 105.304C205.098 105.763 204.945 106.223 204.486 106.529C204.486 106.529 204.18 106.682 204.027 106.682Z" fill="#412945"/>
<path d="M196.221 124.284C195.915 124.284 195.762 124.13 195.456 123.977C174.793 96.1208 130.1 85.8659 129.64 85.7128C129.181 85.5597 128.875 85.1006 129.028 84.6414C129.181 84.1822 129.64 83.8761 130.1 84.0291C130.559 84.1822 175.864 94.5902 196.986 122.906C197.292 123.212 197.139 123.824 196.833 124.13C196.527 124.284 196.374 124.284 196.221 124.284Z" fill="#412945"/>
<path d="M188.262 141.885C187.956 141.885 187.803 141.732 187.65 141.579C165.915 115.253 122.447 104.692 121.988 104.539C121.528 104.386 121.222 103.927 121.375 103.468C121.528 103.008 121.988 102.702 122.447 102.855C122.906 103.008 166.987 113.723 189.027 140.508C189.333 140.814 189.333 141.426 188.874 141.732C188.721 141.885 188.415 141.885 188.262 141.885Z" fill="#412945"/>
<path d="M180.303 159.487C179.996 159.487 179.843 159.334 179.69 159.181C156.885 134.538 114.641 123.365 114.181 123.212C113.722 123.059 113.416 122.6 113.569 122.141C113.722 121.682 114.181 121.375 114.64 121.528C115.1 121.682 157.803 132.855 180.915 157.956C181.221 158.263 181.221 158.875 180.915 159.181C180.762 159.487 180.609 159.487 180.303 159.487Z" fill="#412945"/>
<path d="M172.497 177.242C172.344 177.242 172.038 177.089 171.884 176.936C148.007 153.824 106.988 142.191 106.529 142.191C106.069 142.038 105.763 141.579 105.916 141.12C106.069 140.661 106.528 140.355 106.988 140.508C107.447 140.661 148.773 152.293 173.109 175.711C173.415 176.017 173.415 176.63 173.109 176.936C172.956 177.089 172.65 177.242 172.497 177.242Z" fill="#412945"/>
<path d="M166.221 192.854C166.068 192.854 165.762 192.854 165.609 192.701C140.507 171.119 100.865 159.181 100.406 159.028C99.9468 158.875 99.6407 158.416 99.7937 157.956C99.9468 157.497 100.406 157.191 100.865 157.344C101.324 157.497 141.273 169.589 166.68 191.323C166.986 191.629 167.139 192.242 166.833 192.548C166.833 192.854 166.527 192.854 166.221 192.854Z" fill="#412945"/>
<path d="M306.423 120.151C306.27 120.151 306.117 120.151 305.963 119.998C305.504 119.692 266.934 90.9168 231.577 97.9575C231.118 98.1106 230.659 97.8045 230.506 97.3453C230.353 96.8861 230.659 96.4269 231.118 96.2739C249.944 92.6005 269.536 98.8759 282.699 104.845C296.933 111.274 306.729 118.62 306.882 118.773C307.188 119.08 307.341 119.539 307.035 119.998C306.882 120.151 306.576 120.151 306.423 120.151Z" fill="#412945"/>
<path d="M297.546 138.518C297.393 138.518 297.24 138.518 297.087 138.365C296.781 138.059 258.516 110.508 223.619 115.712C223.159 115.712 222.7 115.406 222.7 114.947C222.7 114.488 223.006 114.029 223.465 114.029C259.128 108.825 297.699 136.834 298.158 136.987C298.617 137.294 298.617 137.753 298.311 138.212C298.005 138.365 297.852 138.518 297.546 138.518Z" fill="#412945"/>
<path d="M288.668 156.885C288.515 156.885 288.362 156.885 288.209 156.732C287.903 156.426 250.251 130.1 215.812 133.467C215.353 133.467 214.894 133.161 214.894 132.702C214.894 132.243 215.2 131.783 215.659 131.783C250.863 128.416 288.821 155.201 289.28 155.354C289.74 155.661 289.74 156.12 289.434 156.579C289.281 156.732 288.974 156.885 288.668 156.885Z" fill="#412945"/>
<path d="M279.79 175.099C279.637 175.099 279.484 175.099 279.331 174.946C279.025 174.64 241.832 149.538 207.853 151.069C207.394 151.069 206.935 150.763 206.935 150.304C206.935 149.844 207.241 149.385 207.7 149.385C242.291 148.008 279.79 173.415 280.25 173.568C280.709 173.875 280.709 174.334 280.403 174.793C280.403 175.099 280.097 175.099 279.79 175.099Z" fill="#412945"/>
<path d="M271.067 193.466C270.914 193.466 270.761 193.466 270.608 193.313C270.302 193.007 233.721 169.13 200.048 168.671C199.589 168.671 199.129 168.211 199.129 167.752C199.129 167.293 199.436 166.834 200.048 166.834C234.18 167.293 271.067 191.476 271.526 191.629C271.985 191.935 271.985 192.395 271.832 192.854C271.526 193.313 271.373 193.466 271.067 193.466Z" fill="#412945"/>
<path d="M262.189 211.833C262.036 211.833 261.883 211.833 261.73 211.68C261.424 211.527 225.455 188.721 192.089 186.425C191.629 186.425 191.323 185.966 191.323 185.507C191.323 185.048 191.782 184.742 192.242 184.742C225.914 187.038 262.189 209.996 262.649 210.149C263.108 210.456 263.108 210.915 262.955 211.374C262.802 211.68 262.495 211.833 262.189 211.833Z" fill="#412945"/>
<path d="M253.312 230.047C253.159 230.047 253.006 230.047 252.853 229.894C252.547 229.741 217.037 208.16 184.282 204.027C183.823 204.027 183.517 203.568 183.517 203.109C183.517 202.65 183.976 202.343 184.435 202.343C217.649 206.476 253.312 228.21 253.771 228.363C254.23 228.669 254.23 229.129 254.077 229.588C253.924 229.894 253.618 230.047 253.312 230.047Z" fill="#412945"/>
<path d="M191.323 286.679C178.16 290.658 164.079 292.801 149.538 292.801C142.038 292.801 134.844 292.189 127.651 291.117C122.141 279.638 116.783 268.924 114.181 264.485C107.447 253.006 94.59 238.312 85.1004 226.374C75.6107 214.435 71.4782 214.741 63.06 210.302C62.4477 209.996 61.8355 209.69 61.2232 209.384C60.611 209.078 59.9988 208.772 59.2335 208.466C52.0397 205.098 42.7031 201.578 39.642 200.354C39.0297 200.201 38.7236 200.048 38.7236 200.048C38.7236 200.048 37.193 188.262 51.2744 186.425C52.9581 186.272 54.7948 186.119 56.9376 186.272C57.5498 186.272 58.3151 186.425 58.9274 186.425C66.2742 187.191 72.3965 190.711 78.2127 193.772C80.0494 194.69 81.7331 195.762 83.5698 196.527C89.6921 199.435 95.9675 201.272 103.927 198.976C105.457 198.517 106.988 197.905 108.518 197.292C126.579 189.027 130.1 181.374 132.089 172.038C132.548 170.048 132.855 167.905 133.314 165.762C135.763 153.365 138.977 135.61 138.977 135.61C138.977 135.61 129.64 117.243 132.395 104.08C133.62 98.2636 136.987 93.5188 144.64 91.8351C145.099 91.6821 145.712 91.6821 146.171 91.529L164.385 136.987C164.385 136.987 156.273 170.507 155.813 179.078C155.66 182.14 154.589 187.956 154.589 195.762C154.589 209.69 156.273 227.751 157.803 232.649C159.028 236.475 175.711 262.648 191.323 286.679Z" fill="#FF9582"/>
<g opacity="0.41">
<path d="M191.323 286.679C178.16 290.658 164.079 292.801 149.538 292.801C142.038 292.801 134.844 292.189 127.651 291.117C122.141 279.638 116.783 268.924 114.181 264.485C107.447 253.006 94.59 238.312 85.1004 226.374C75.6107 214.435 71.4782 214.741 63.06 210.302C62.4477 209.996 61.8355 209.69 61.2232 209.384C60.611 209.078 59.9988 208.772 59.2335 208.466C52.0397 205.098 42.7031 201.578 39.642 200.354C39.0297 200.201 38.7236 200.048 38.7236 200.048C38.7236 200.048 37.193 188.262 51.2744 186.425C52.9581 186.272 54.7948 186.119 56.9376 186.272C57.5498 186.272 58.3151 186.425 58.9274 186.425C66.2742 187.191 72.3965 190.711 78.2127 193.772C80.0494 194.69 81.7331 195.762 83.5698 196.527C89.6921 199.435 95.9675 201.272 103.927 198.976C105.457 198.517 106.988 197.905 108.518 197.292C126.579 189.027 130.1 181.374 132.089 172.038C132.548 170.048 132.855 167.905 133.314 165.762C135.763 153.365 138.977 135.61 138.977 135.61C138.977 135.61 129.64 117.243 132.395 104.08C133.62 98.2636 136.987 93.5188 144.64 91.8351C145.099 91.6821 145.712 91.6821 146.171 91.529L164.385 136.987C164.385 136.987 156.273 170.507 155.813 179.078C155.66 182.14 154.589 187.956 154.589 195.762C154.589 209.69 156.273 227.751 157.803 232.649C159.028 236.475 175.711 262.648 191.323 286.679Z" fill="#412945"/>
</g>
<path d="M115.406 197.905C115.1 197.905 112.957 198.364 99.4881 199.129C91.6821 199.588 82.9578 195.762 74.5396 192.088C66.4274 188.568 58.7745 185.201 51.5808 185.201C46.836 185.201 43.1626 186.578 40.8667 189.333C37.0402 193.619 37.8055 199.741 37.9585 200.048C37.9585 200.507 38.2646 200.813 38.7238 200.813C39.0299 200.966 39.4891 200.813 39.6422 200.507C39.7952 200.354 42.5503 196.374 50.5093 198.976C58.6214 201.578 59.3867 208.772 59.3867 209.078C59.3867 209.537 59.8459 209.996 60.3051 209.996C60.3051 209.996 60.3051 209.996 60.4581 209.996C60.9173 209.996 61.3765 209.537 61.3765 208.925C61.3765 208.772 60.4581 200.048 51.1216 197.139C45.1523 195.303 41.632 196.68 39.7952 197.905C39.9483 195.915 40.4075 193.007 42.3973 190.711C44.387 188.415 47.6012 187.191 51.7338 187.191C58.6214 187.191 65.9682 190.405 73.9273 193.925C82.4986 197.599 91.376 201.425 99.7942 201.119C115.559 200.201 116.171 199.894 116.478 199.741C116.937 199.435 117.09 198.823 116.784 198.517C116.171 197.905 115.712 197.752 115.406 197.905Z" fill="#412945"/>
<path d="M147.09 91.2229C146.937 90.9168 146.783 90.7637 146.477 90.6107C146.171 90.6107 145.865 90.6107 145.712 90.7637C145.712 90.7637 145.253 91.2229 144.794 91.8351C143.263 93.6718 140.508 98.1105 141.886 104.845C143.722 114.029 154.13 113.416 154.13 113.416C154.13 113.416 154.13 113.416 154.283 113.416C159.181 125.202 163.314 135.763 163.467 136.987C163.467 137.6 162.702 140.355 161.936 143.263C159.64 151.987 155.355 168.517 154.896 178.16C154.283 191.476 154.589 195.456 154.589 195.609C154.589 196.068 155.049 196.527 155.508 196.527C155.967 196.527 156.426 196.068 156.426 195.456C156.426 195.456 156.12 191.323 156.732 178.16C157.191 168.671 161.477 152.446 163.773 143.722C164.997 138.977 165.457 137.447 165.457 136.834C165.304 135.151 151.375 101.478 147.09 91.2229ZM143.722 104.386C142.498 98.7228 144.641 94.8963 146.018 93.2127C148.314 98.8758 151.069 105.304 153.518 111.427C151.528 111.427 145.1 110.967 143.722 104.386Z" fill="#412945"/>
<path d="M84.3355 78.9782C76.2234 78.9782 68.4174 80.6619 61.5298 83.57L50.9687 67.6519C49.5912 65.6621 46.9892 65.0499 44.9994 66.4274L37.3465 71.4784C35.3568 72.7028 34.7445 75.3048 35.969 77.2946L45.3056 93.978C33.214 104.692 25.561 120.457 25.561 137.906C25.561 170.354 51.8871 196.68 84.3355 196.68C116.784 196.68 143.263 172.344 143.11 137.906C142.957 105.304 116.784 78.9782 84.3355 78.9782Z" fill="white"/>
<path d="M136.069 137.753C136.069 138.977 136.069 140.202 135.916 141.426C134.08 114.488 107.294 113.876 79.8969 113.876C52.4994 113.876 34.4385 114.488 32.6018 141.426C32.4487 140.202 32.4487 138.977 32.4487 137.753C32.4487 109.131 55.5605 86.0189 84.1825 86.0189C112.957 86.0189 136.069 109.131 136.069 137.753Z" fill="#412945"/>
<path d="M135.916 141.426C134.08 168.364 111.58 189.486 84.3356 189.486C56.9382 189.486 34.5916 168.211 32.7549 141.426C34.5916 114.488 57.0912 93.3657 84.3356 93.3657C111.733 93.3657 134.08 114.488 135.916 141.426Z" fill="#6E72FF"/>
<path d="M125.049 154.283C126.426 153.824 127.192 152.446 127.651 151.069C129.335 146.783 129.028 141.732 126.886 137.6C123.978 142.651 123.518 148.62 125.049 154.283Z" fill="#412945"/>
<path d="M94.59 98.2636C93.5186 97.3452 91.835 97.4983 90.4575 97.8044C86.0188 98.7228 81.8862 101.784 79.5903 105.763C85.4066 105.457 90.6105 102.549 94.59 98.2636Z" fill="#412945"/>
<path d="M43.4688 140.202C44.8464 139.742 45.6117 138.365 46.0709 136.987C47.7545 132.702 47.4484 127.651 45.3056 123.518C42.3975 128.569 41.9383 134.538 43.4688 140.202Z" fill="#412945"/>
<path d="M84.9473 177.089C85.2534 178.466 86.6309 179.385 87.8554 179.997C91.9879 181.987 97.0389 182.14 101.325 180.456C96.5797 177.089 90.6104 176.17 84.9473 177.089Z" fill="#412945"/>
<path d="M57.7036 174.793C59.0812 174.64 60.1525 173.415 60.9178 172.191C63.3668 168.364 64.2852 163.467 63.0607 158.875C59.0812 163.16 57.3975 168.977 57.7036 174.793Z" fill="#412945"/>
<path d="M172.345 78.366C169.13 71.7845 161.63 67.4988 154.284 68.1111C149.386 68.5702 144.947 71.0192 140.814 73.3151C138.366 74.6926 135.764 76.0701 133.162 77.1415C127.192 79.4374 120.458 79.2843 114.335 77.1415C114.948 73.4681 115.101 69.6417 114.488 66.1213C113.876 62.4479 112.805 59.3867 110.968 57.0909C108.825 54.1827 105.611 52.346 102.397 52.346C100.866 52.346 99.4887 52.6522 98.5703 53.4174C96.7336 54.6419 95.9683 57.0909 96.2745 60.152C96.7336 65.0499 99.6418 69.0294 101.938 71.4784C104.846 74.5395 108.366 76.9885 112.193 78.519C111.733 80.6619 110.968 82.9577 110.05 85.1006C109.897 85.5597 109.744 86.0189 109.438 86.325C108.672 88.0087 107.754 89.6923 106.682 91.2229C105.458 93.0596 104.08 95.0494 102.55 96.733C100.866 98.7228 99.0295 100.559 97.0398 102.396C95.8153 103.468 94.4378 104.539 92.9072 105.304L85.8665 104.386L80.8155 103.774L67.3464 102.09L59.9996 114.641L45.1529 139.896C43.9285 141.885 44.8468 144.334 46.9896 145.253L96.2745 166.069C98.2642 166.834 100.407 165.915 101.172 163.926L117.243 122.294L107.601 115.406L95.05 106.376C96.2745 105.61 97.3459 104.692 98.2643 103.774C100.56 101.784 102.55 99.6411 104.387 97.4983C105.917 95.6616 107.142 93.978 108.366 91.9882C109.437 90.3046 110.356 88.6209 111.121 86.9373C111.274 86.4781 111.427 86.172 111.733 85.7128C112.652 83.57 113.417 81.2741 113.876 78.9782C120.305 81.121 127.345 81.121 133.621 78.8252C136.376 77.7538 138.978 76.3762 141.58 74.8456C145.865 72.5498 149.845 70.2539 154.284 69.7947C160.865 69.1825 167.6 73.0089 170.508 78.9782C172.345 82.8047 172.804 87.3964 171.885 92.7535C171.426 95.6616 170.508 98.7228 169.743 101.631C169.589 102.243 169.436 102.702 169.283 103.315C168.977 104.539 168.518 105.61 168.212 106.835L170.049 107.294C170.355 106.07 170.661 104.998 171.12 103.774C171.273 103.161 171.579 102.396 171.732 101.784C172.651 98.8758 173.416 95.9677 173.875 93.0596C174.794 87.3964 174.334 82.3455 172.345 78.366ZM112.499 76.5293C108.978 74.9987 105.764 72.8559 103.162 70.1008C101.019 67.8049 98.4173 64.2846 97.9581 59.8459C97.8051 59.0806 97.8051 56.1725 99.4887 54.948C100.254 54.3358 101.325 54.3358 102.091 54.3358H102.244C104.846 54.3358 107.601 55.8664 109.438 58.3153C110.968 60.4581 112.039 63.2132 112.499 66.5805C113.111 69.6417 112.958 73.0089 112.499 76.5293Z" fill="white"/>
<path d="M68.265 106.988L49.5918 140.661L96.1216 161.477L112.958 124.437L68.265 106.988Z" fill="#B5E1E8"/>
<path d="M72.8567 118.008C71.4792 118.467 70.5609 119.692 69.9486 121.069C68.1119 125.202 67.9589 130.253 69.7956 134.538C73.1629 129.641 73.9281 123.671 72.8567 118.008Z" fill="#412945"/>
<path d="M95.9691 131.783C96.4283 130.406 95.816 129.028 95.0507 127.804C92.6018 123.977 88.3161 121.222 83.8774 120.457C86.0203 125.814 90.6121 129.641 95.9691 131.783Z" fill="#412945"/>
<path d="M87.5505 150.457C88.4688 149.385 88.4688 147.701 88.1627 146.324C87.2443 141.732 84.4893 137.753 80.5098 135.304C80.5098 141.12 83.2648 146.477 87.5505 150.457Z" fill="#412945"/>
<path d="M170.048 97.4983L173.874 98.8758C175.864 99.6411 177.242 101.478 177.395 103.621L177.701 120.151L156.12 112.804L163.926 99.7942C165.15 97.4983 167.752 96.58 170.048 97.4983Z" fill="#B5E1E8"/>
<path d="M230.354 46.6828L239.384 49.4379C240.302 49.744 240.302 51.1215 239.384 51.4277L230.354 54.0296C230.048 54.1827 229.741 54.3358 229.741 54.6419L226.833 64.2846C226.527 65.2029 225.303 65.2029 224.844 64.2846L221.935 55.5602C221.782 55.2541 221.629 55.1011 221.323 54.948L211.987 51.5807C211.068 51.2746 211.068 49.8971 211.987 49.5909L221.476 46.8359C221.782 46.6828 222.088 46.5298 222.242 46.2237L224.997 36.8871C225.303 35.9687 226.68 35.9687 226.986 36.8871L229.894 46.0706C229.741 46.3767 230.048 46.5298 230.354 46.6828Z" fill="white"/>
<path d="M67.8053 230.659L76.8358 233.414C77.7541 233.72 77.7541 235.098 76.8358 235.404L67.8053 238.006C67.4992 238.159 67.1931 238.312 67.1931 238.618L64.285 248.261C63.9789 249.179 62.7544 249.179 62.2952 248.261L59.3871 239.537C59.234 239.23 59.081 239.077 58.7749 238.924L49.4383 235.557C48.5199 235.251 48.5199 233.873 49.4383 233.567L58.9279 230.812C59.234 230.659 59.5402 230.506 59.6932 230.2L62.4482 220.863C62.7544 219.945 64.1319 219.945 64.438 220.863L67.3461 230.047C67.1931 230.353 67.4992 230.659 67.8053 230.659Z" fill="white"/>
<path d="M203.568 253.159L212.599 255.914C213.517 256.22 213.517 257.598 212.599 257.904L203.568 260.506C203.262 260.659 202.956 260.812 202.956 261.118L200.048 270.761C199.742 271.679 198.518 271.679 198.058 270.761L195.15 262.036C194.997 261.73 194.844 261.577 194.538 261.424L185.201 258.057C184.283 257.751 184.283 256.373 185.201 256.067L194.691 253.312C194.997 253.159 195.303 253.006 195.456 252.7L198.211 243.363C198.518 242.445 199.895 242.445 200.201 243.363L203.109 252.547C202.956 252.7 203.262 253.006 203.568 253.159Z" fill="white"/>
<path d="M73.6213 54.948L81.1211 57.2439C81.8864 57.55 81.8864 58.6214 81.1211 58.7745L73.6213 60.9173C73.3152 61.0704 73.1621 61.2234 73.0091 61.5295L70.5601 69.4886C70.254 70.2539 69.1826 70.2539 69.0295 69.4886L66.5806 62.1418C66.4275 61.8357 66.2745 61.6826 66.1214 61.6826L58.4685 58.9275C57.7032 58.6214 57.7032 57.55 58.4685 57.397L66.2744 55.1011C66.5806 54.948 66.7337 54.795 66.8867 54.4888L69.1826 46.6829C69.4887 45.9176 70.5601 45.9176 70.7132 46.6829L73.1621 54.3358C73.1621 54.795 73.3152 54.948 73.6213 54.948Z" fill="white"/>
</svg>
