<svg width="332" height="332" viewBox="0 0 332 332" fill="none" xmlns="http://www.w3.org/2000/svg">
<path d="M165.83 331.182C136.098 331.182 107.002 323.232 81.5633 308.287C57.3964 293.978 37.0453 273.627 22.736 249.301C22.259 248.824 21.941 248.347 21.623 247.711C21.464 247.393 21.305 246.916 21.1461 246.439C7.31368 221.795 0 193.812 0 165.512C0 139.914 5.72373 115.429 16.8532 92.6928C17.3302 91.7389 17.8072 90.7849 18.2842 89.8309C18.4431 89.354 18.7611 88.877 19.0791 88.4L19.2381 88.082C28.9367 69.7978 41.6561 53.7396 57.3964 40.2252C63.2791 35.1374 69.7978 30.2086 76.4755 26.0748C103.186 8.90359 134.031 0 165.83 0C198.264 0 229.745 9.38059 256.773 27.1878C283.166 44.518 303.835 68.8439 316.873 97.4626C318.463 100.801 319.894 104.299 321.165 107.797C328.002 126.24 331.5 145.796 331.5 165.671C331.5 199.218 321.483 231.653 302.563 259.317C300.973 261.702 299.224 264.087 297.476 266.313L309.718 290.957C310.672 292.865 310.672 294.932 309.718 296.84C308.764 298.589 307.015 299.86 304.948 300.178C304.789 300.178 284.279 303.04 253.276 306.538C244.054 312.262 234.355 317.032 224.339 320.848C207.327 327.207 189.36 330.864 171.076 331.5H170.917C169.327 331.182 167.578 331.182 165.83 331.182Z" fill="white"/>
<path d="M325.14 165.512C325.14 198.9 314.806 229.904 297.317 255.502C295.091 258.84 292.547 262.179 290.003 265.2C289.367 265.995 288.89 266.631 288.254 267.426C277.761 280.145 265.2 291.116 251.209 300.02C251.209 300.02 251.209 300.02 251.05 300.02C241.987 305.743 232.289 310.672 222.113 314.488C206.055 320.53 188.884 324.027 170.917 324.663H170.758C169.168 324.663 167.42 324.663 165.83 324.663C77.9066 324.663 6.5188 253.276 6.5188 165.353C6.5188 140.232 12.4016 116.542 22.7361 95.3957C23.2131 94.4418 23.69 93.4878 24.167 92.6929C24.326 92.2159 26.2339 93.8058 26.3929 93.3288C26.3929 93.1698 27.1879 92.8519 27.1879 92.6929C34.3425 79.3375 69.321 108.433 100.802 123.855C110.659 128.625 119.722 131.964 127.353 131.964C128.784 131.964 130.056 131.964 131.487 131.805C140.073 131.328 149.135 129.42 158.516 126.717C169.804 123.378 181.411 118.609 193.017 113.68C198.423 111.295 203.67 108.91 208.917 106.525C226.883 98.4166 244.213 90.308 259.794 85.5382C283.007 78.5425 301.768 79.4964 310.99 100.007C312.421 103.345 313.852 106.525 315.124 110.023C321.643 127.194 325.14 145.955 325.14 165.512Z" fill="#6E72FF"/>
<path d="M173.461 243.1C162.014 233.084 145.797 224.498 131.01 221.477C116.224 218.297 99.6886 220.841 87.7641 230.063C84.9023 232.289 81.8814 234.991 78.3836 234.832C76.3167 234.832 74.4087 233.719 72.5008 232.925C57.2375 226.247 37.6814 231.494 27.5059 244.69L173.461 243.1Z" fill="#F7EDE5"/>
<path d="M310.99 100.006C308.605 101.596 306.221 103.186 303.836 104.617C292.229 111.136 279.351 115.111 266.79 119.722C248.029 126.558 229.586 134.826 212.097 144.366C211.938 144.525 211.62 144.524 211.461 144.683C209.553 145.637 207.804 146.75 205.896 147.704C201.603 150.248 197.311 152.792 193.018 155.336C189.679 157.403 186.499 159.47 183.319 161.537C177.118 165.671 168.533 165.989 160.106 166.466C151.203 166.943 142.299 167.419 136.257 172.666C134.985 173.779 133.713 174.892 132.441 175.846C127.831 179.662 122.902 183.16 117.337 185.227C115.111 186.022 112.885 186.499 110.5 186.817C110.182 186.817 109.705 186.817 109.387 186.976C109.07 186.976 108.593 186.976 108.275 186.976C103.664 186.976 99.2119 185.863 95.5551 182.842C95.2371 182.524 94.7602 182.206 94.4422 181.888C89.1954 176.641 87.6054 168.373 85.0616 161.219C78.3839 142.458 62.6436 128.625 47.8573 115.429C39.5896 107.956 31.322 100.165 24.6443 91.4209C24.6443 91.2619 24.8033 91.2619 24.8033 91.1029C34.0249 73.6137 46.5853 57.8734 61.5306 44.995C67.2544 40.0662 73.4551 35.4554 79.8148 31.3216C104.618 15.4223 134.031 6.20074 165.671 6.20074C230.381 6.20074 286.029 44.677 310.99 100.006Z" fill="#B5E1E8"/>
<path d="M295.409 105.412C283.962 95.3957 267.744 86.8101 252.958 83.7892C238.172 80.7684 221.636 83.1533 209.712 92.3748C206.85 94.6007 203.829 97.3036 200.331 97.1446C198.264 97.1446 196.357 96.0317 194.449 95.2367C179.185 88.559 159.629 93.8058 149.454 107.002L295.409 105.412Z" fill="#F7EDE5"/>
<path d="M96.6681 99.5295L101.597 128.466L83.4717 146.909L105.413 144.524L109.864 164.876L118.609 140.391L146.274 143.094L126.4 128.148L139.914 109.705L113.998 120.358L96.6681 99.5295Z" fill="#FFC063"/>
<path d="M131.965 34.5015L128.149 63.7561L105.572 75.9986L127.354 80.1324L125.605 100.96L141.186 79.9734L166.784 90.6259L151.998 70.4339L170.441 56.9195L142.458 59.6223L131.965 34.5015Z" fill="#FFC063"/>
<path d="M177.913 89.036L174.256 118.291L151.521 130.533L173.302 134.667L171.554 155.495L187.135 134.508L212.733 145.16L198.105 124.968L216.39 111.454L188.566 114.157L177.913 89.036Z" fill="#FFC063"/>
<path d="M230.381 145.637L222.272 159.47L221.636 160.583L221 161.696L206.373 186.976L205.578 188.407L204.783 189.837L195.72 205.578L192.7 206.532L175.051 212.414L133.554 226.247L132.6 226.565L131.646 226.883L120.835 230.54L119.881 230.858L118.927 231.176L116.86 231.812L79.3378 175.21L28.778 99.6885L24.1672 92.8518C24.3262 92.3748 24.6442 91.8979 24.8032 91.4209C24.8032 91.2619 24.9622 91.2619 24.9622 91.1029C30.368 91.1029 45.7903 92.6929 62.1665 110.182C70.2751 118.927 77.9068 132.759 84.1076 146.273C84.1076 146.432 84.2665 146.591 84.2665 146.75C91.4212 162.332 96.509 177.277 98.4169 182.683C98.7349 183.796 99.0529 184.591 99.0529 184.75C99.0529 184.591 98.8939 183.796 98.8939 182.683C98.7349 178.867 99.6888 170.281 109.387 162.332C110.023 161.855 110.659 161.378 111.295 160.901C117.019 156.767 125.446 152.792 137.688 149.93C152.156 146.591 162.968 145.637 172.349 145.637C174.574 145.637 176.641 145.637 178.549 145.796C188.089 146.273 196.356 147.386 205.896 147.545C209.235 147.545 212.892 147.545 216.708 147.227C221 147.068 225.452 146.432 230.381 145.637Z" fill="#F7EDE5"/>
<path d="M27.188 97.6216C27.188 97.6216 81.4046 188.248 110.182 236.263C138.96 284.279 168.215 313.693 168.215 313.693L182.047 310.513C182.047 310.513 183.001 307.174 227.837 302.563C272.673 297.794 303.995 293.501 303.995 293.501L229.268 143.094L107.002 184.432L88.5592 180.616L27.188 97.6216Z" fill="#412945"/>
<path d="M181.411 310.831C181.093 310.831 180.775 310.672 180.457 310.354L105.571 182.524C105.253 182.047 105.412 181.411 105.889 181.093C106.366 180.775 107.002 180.934 107.32 181.411L182.206 309.241C182.524 309.718 182.365 310.354 181.888 310.672C181.729 310.672 181.57 310.831 181.411 310.831Z" fill="#F7EDE5"/>
<path d="M168.215 314.011C167.897 314.011 167.579 313.852 167.261 313.534L88.4003 179.344C88.0823 178.867 88.2413 178.231 88.7183 177.913C89.1953 177.595 89.8312 177.754 90.1492 178.231L169.01 312.421C169.328 312.898 169.169 313.534 168.692 313.852C168.533 314.011 168.374 314.011 168.215 314.011Z" fill="#F7EDE5"/>
<path d="M230.858 178.708L222.272 159.311L221.318 157.085C221.159 156.608 220.523 156.29 220.046 156.608L128.148 192.699C127.83 192.858 127.671 193.017 127.512 193.335C127.353 193.653 127.512 193.971 127.671 194.13L140.232 214.799C140.391 215.117 140.709 215.276 141.027 215.276C141.186 215.276 141.345 215.276 141.504 215.117C141.663 214.958 164.399 204.624 186.34 196.356C192.699 193.971 199.059 191.586 204.783 189.36C219.092 183.955 230.063 179.98 230.222 179.821C230.54 179.662 230.699 179.503 230.858 179.185C231.017 179.344 231.017 179.026 230.858 178.708ZM206.373 186.817C200.013 189.201 192.699 191.904 185.545 194.607C165.83 201.921 145.638 211.142 141.345 213.05L129.897 194.289L219.887 158.993L221 161.696L228.473 178.708C225.77 179.662 217.184 182.842 206.373 186.817Z" fill="#F7EDE5"/>
<path d="M254.707 265.677C245.803 276.648 231.176 282.212 216.548 278.873C195.879 274.263 182.842 253.753 187.612 232.925C190.95 218.297 202.239 207.486 215.912 204.147C212.256 208.599 209.553 214.004 208.281 219.887C203.67 240.556 216.548 261.066 237.217 265.836C243.259 267.108 249.142 267.108 254.707 265.677Z" fill="#FFC063"/>
<path d="M206.214 209.712C206.214 209.712 182.047 198.9 173.143 215.117C164.24 231.335 175.528 243.418 175.528 243.418C175.528 243.418 173.62 234.991 178.231 229.904C182.842 224.816 189.997 227.36 189.997 227.36L206.214 209.712Z" fill="#B5E1E8"/>
<path d="M172.984 249.46C175.528 251.209 178.867 250.573 180.616 248.029C182.365 245.485 181.729 242.146 179.185 240.397C176.641 238.648 173.302 239.284 171.553 241.828C169.804 244.372 170.44 247.711 172.984 249.46Z" fill="#F7EDE5"/>
<path d="M296.681 164.24L306.856 167.419C307.969 167.737 307.969 169.327 306.856 169.645L296.681 172.507C296.363 172.666 296.045 172.825 295.886 173.302L292.547 184.273C292.229 185.386 290.798 185.386 290.321 184.273L286.982 174.256C286.823 173.938 286.664 173.62 286.346 173.62L275.853 169.804C274.74 169.486 274.899 167.896 275.853 167.578L286.664 164.558C286.982 164.399 287.3 164.081 287.459 163.763L290.48 153.11C290.798 151.997 292.388 151.997 292.706 153.11L296.045 163.604C296.045 163.922 296.363 164.081 296.681 164.24Z" fill="white"/>
<path d="M98.0989 44.518L108.274 47.6979C109.387 48.0159 109.387 49.6058 108.274 49.9238L98.0989 52.7857C97.7809 52.9447 97.463 53.1036 97.304 53.5806L93.9651 64.5511C93.6471 65.6641 92.2162 65.6641 91.7392 64.5511L88.4004 54.5346C88.2414 54.2166 88.0824 53.8986 87.7644 53.8986L77.2709 50.0828C76.1579 49.7648 76.3169 48.1749 77.2709 47.8569L88.0824 44.836C88.4004 44.677 88.7184 44.359 88.8774 44.0411L91.8982 33.3885C92.2162 32.2756 93.8061 32.2756 94.1241 33.3885L97.463 43.8821C97.463 44.041 97.7809 44.359 98.0989 44.518Z" fill="white"/>
<path d="M111.454 275.217L121.63 278.396C122.743 278.714 122.743 280.304 121.63 280.622L111.454 283.484C111.136 283.643 110.818 283.802 110.659 284.279L107.32 295.25C107.002 296.363 105.571 296.363 105.094 295.25L101.756 285.233C101.597 284.915 101.438 284.597 101.12 284.597L90.6261 280.781C89.5131 280.463 89.6721 278.873 90.6261 278.555L101.438 275.535C101.756 275.376 102.074 275.058 102.233 274.74L105.253 264.087C105.571 262.974 107.161 262.974 107.479 264.087L110.818 274.581C110.818 274.899 111.136 275.058 111.454 275.217Z" fill="white"/>
<path d="M39.5897 162.332L49.7652 165.512C50.8781 165.83 50.8781 167.419 49.7652 167.737L39.5897 170.599C39.2717 170.758 38.9537 170.917 38.7947 171.394L35.4558 182.365C35.1378 183.478 33.7069 183.478 33.2299 182.365L29.8911 172.348C29.7321 172.03 29.5731 171.712 29.2551 171.712L18.7616 167.896C17.6486 167.578 17.8076 165.989 18.7616 165.671L29.5731 162.65C29.8911 162.491 30.209 162.173 30.368 161.855L33.3889 151.202C33.7069 150.089 35.2968 150.089 35.6148 151.202L38.9536 161.696C38.9536 161.855 39.2717 162.173 39.5897 162.332Z" fill="white"/>
</svg>
