<svg width="330" height="330" viewBox="0 0 330 330" fill="none" xmlns="http://www.w3.org/2000/svg">
<path d="M165 330C127.313 330 91.8426 317.649 62.548 294.371C34.0451 271.727 13.4597 239.899 4.90883 204.746C3.16698 197.937 1.90019 190.969 1.10844 183.844C0.475043 177.668 0 171.334 0 165.158C0 121.137 17.1017 79.6497 48.2965 48.4549C79.4914 17.1017 120.979 0 165 0C209.021 0 250.509 17.1017 281.703 48.2965C312.898 79.4914 330 120.979 330 165C330 209.179 312.74 250.667 281.387 281.862C278.536 284.712 275.528 287.404 272.519 290.096C242.75 315.907 204.587 330 165 330Z" fill="white"/>
<path d="M323.666 165C323.666 198.253 313.373 229.132 295.955 254.626C289.621 263.81 260.485 243.066 252.567 250.667C245.125 257.793 258.901 293.421 250.192 298.964C225.648 314.64 196.353 323.666 165.158 323.666C77.5913 323.666 6.49243 252.567 6.49243 165C6.49243 117.02 27.7112 74.1075 61.4396 44.9712C64.2899 42.596 85.5087 59.8561 88.359 57.6392C91.526 55.2639 76.3245 33.4117 79.6498 31.3532C104.352 15.5182 133.647 6.33398 165.158 6.33398C252.726 6.33398 323.666 77.4328 323.666 165Z" fill="#6E72FF"/>
<path d="M295.955 254.626C283.762 272.361 268.244 287.404 250.034 298.964L241.166 285.662C241.166 285.662 228.023 281.228 213.138 267.294C208.863 263.335 204.904 259.376 201.42 255.576C192.711 246.392 187.011 239.266 187.011 239.266V186.852C187.011 186.852 186.377 180.36 195.403 180.36H195.561C195.561 180.36 187.961 162.466 205.854 159.299C205.854 159.299 201.262 151.382 201.579 143.781C201.737 140.931 202.529 138.081 204.429 135.864C205.062 135.23 205.696 134.597 206.488 133.964C207.913 132.855 209.813 132.063 212.03 131.43C212.03 131.43 212.03 131.588 212.188 131.747C213.138 133.013 216.939 138.556 222.956 145.998C223.431 146.473 223.748 147.107 224.223 147.582C228.181 152.49 233.09 158.033 238.474 163.892C254.309 180.835 283.762 199.52 287.562 211.871C291.363 224.223 291.046 244.333 293.105 250.509C293.738 251.3 294.688 252.726 295.955 254.626Z" fill="#FF9582"/>
<path d="M229.448 242.433C229.448 242.274 222.006 229.132 221.214 215.038C220.581 200.945 224.381 188.752 224.381 188.752C224.381 188.594 224.381 188.594 224.381 188.436C224.381 188.277 224.381 188.277 224.381 188.119C224.381 187.961 220.581 179.727 216.939 173.551C216.147 172.126 215.039 170.542 213.93 168.959C211.872 165.792 209.338 161.991 207.28 157.874C205.379 154.232 203.796 150.274 203.004 145.998C202.687 144.731 202.687 143.623 202.687 142.514C202.846 139.664 204.113 137.447 205.538 135.864C205.854 135.547 206.013 135.389 206.329 135.072C207.596 133.964 208.863 133.172 209.971 132.697C209.496 135.072 209.18 139.189 211.238 143.94C212.03 145.998 213.455 147.423 215.355 148.057C219.314 149.64 224.065 147.582 224.381 147.582C224.381 147.582 224.54 147.582 224.54 147.423C224.856 147.107 225.015 146.631 224.856 146.156C224.698 145.681 224.065 145.365 223.589 145.681C223.589 145.681 223.431 145.681 223.273 145.84C222.323 146.156 218.839 147.265 216.147 146.156C214.722 145.681 213.772 144.573 213.138 143.148C210.605 137.289 212.188 132.38 212.347 131.588V131.43C212.505 131.113 212.347 130.638 212.188 130.322C211.872 130.005 211.555 129.846 211.238 130.005C211.238 130.005 209.18 130.638 206.963 131.905C205.538 132.855 204.113 133.964 203.004 135.547C201.421 137.764 200.312 140.614 200.787 144.573C200.787 145.048 200.946 145.523 200.946 145.998C201.737 150.274 203.479 154.391 205.221 158.033C203.479 158.349 198.412 159.616 194.928 165.792C192.553 169.909 192.711 175.293 195.403 180.043C195.878 180.993 196.67 181.943 197.303 182.893C199.204 185.269 202.212 187.961 205.221 190.178C206.329 190.969 207.438 191.761 208.546 192.394C208.071 192.236 207.596 192.078 207.28 192.078C206.488 191.919 205.854 191.761 205.063 191.761C202.846 191.603 200.787 192.236 199.52 193.503C198.095 194.77 197.303 196.353 197.303 198.095C197.303 199.362 197.62 200.47 198.095 201.42C194.137 199.045 190.019 196.195 186.852 193.82V196.353C190.019 198.57 197.937 204.112 204.113 207.121C205.696 207.913 206.963 208.388 208.23 208.863C208.23 209.021 208.388 209.179 208.388 209.179C208.705 209.655 209.021 210.13 209.18 210.763C207.913 210.13 206.013 209.021 203.954 208.229C199.204 206.171 193.345 204.587 191.128 207.913C190.653 208.704 190.494 209.496 190.336 210.288C190.178 212.346 191.286 214.563 192.711 216.622C190.336 214.88 188.119 213.138 186.694 211.871V214.563C188.119 215.672 189.861 217.097 191.92 218.522C191.286 218.522 190.653 218.522 190.178 218.522C188.911 218.68 187.644 219.314 186.852 220.422V229.131C188.278 231.348 190.494 233.249 192.236 234.515C190.494 234.199 188.753 233.249 186.852 232.298V234.674C189.069 235.782 191.445 236.732 193.503 236.732C193.661 236.732 193.82 236.732 193.978 236.732C195.245 236.732 196.353 236.416 197.462 235.782C200.312 233.882 202.054 231.348 202.371 228.498C202.529 226.756 202.212 225.014 201.262 223.589C201.896 223.748 202.529 223.906 203.162 223.906C203.321 223.906 203.479 223.906 203.637 223.906C206.646 223.589 209.496 221.372 211.08 218.205C212.347 215.355 212.347 212.188 210.922 209.496C211.08 209.496 211.08 209.496 211.08 209.496C214.564 209.179 217.731 206.804 218.997 203.637C219.156 203.479 219.156 203.162 219.314 203.004C218.997 206.646 218.681 210.763 218.997 215.197C219.631 229.765 227.073 242.908 227.39 243.541C227.548 243.858 227.865 244.016 228.34 244.016C228.498 244.016 228.657 244.016 228.815 243.858C229.448 243.541 229.607 242.908 229.448 242.433ZM203.796 186.06C203.954 186.536 204.271 187.011 204.429 187.327C202.529 185.744 200.629 183.844 199.045 181.943C195.087 177.193 194.137 171.334 196.67 167.059C200.47 160.566 205.854 160.25 206.013 160.25C206.171 160.25 206.171 160.25 206.329 160.25C206.488 160.725 206.804 161.041 207.121 161.516C208.863 164.683 210.763 167.375 212.347 169.909C213.455 171.492 214.405 173.076 215.197 174.501C216.305 176.243 217.256 178.301 218.206 180.202C216.78 178.776 215.197 177.668 213.455 176.876C210.605 175.609 208.071 175.293 206.171 176.084C205.538 176.243 205.063 176.56 204.588 177.035C203.004 178.46 201.579 181.152 203.796 186.06ZM208.705 190.336C208.705 190.019 208.705 189.703 208.546 189.386C208.546 189.386 206.804 187.486 205.696 185.11C204.588 182.893 204.113 180.202 206.013 178.46C207.438 177.193 209.813 177.351 212.663 178.618C216.78 180.518 220.898 184.952 220.898 189.069C219.472 190.178 217.572 191.603 216.147 192.394C215.989 192.394 215.83 192.553 215.672 192.553C215.672 192.553 215.672 192.553 215.514 192.711C215.355 192.869 215.039 192.87 214.88 192.87C214.089 193.345 211.555 192.236 208.705 190.336ZM200.47 228.656C200.312 230.873 198.887 232.932 196.512 234.515C196.353 234.674 196.037 234.674 195.878 234.832C195.878 234.832 195.72 234.674 195.562 234.674C194.136 233.724 188.594 230.082 187.644 226.123C187.327 225.014 187.486 223.906 188.119 222.956C188.753 221.847 189.703 221.214 190.811 221.056C192.395 220.739 194.295 221.372 195.878 222.164C197.304 222.956 198.57 223.748 199.362 224.223C200.154 225.331 200.629 226.915 200.47 228.656ZM209.496 217.572C208.388 220.106 206.013 221.847 203.796 222.164H203.637C202.687 222.164 201.262 221.689 199.679 221.056L199.52 220.897C198.57 220.106 197.145 218.68 195.878 217.097C194.453 215.355 193.186 213.297 193.028 211.555C192.87 210.763 193.028 209.971 193.503 209.338C194.77 207.279 199.837 208.704 204.429 210.763C206.646 211.713 208.546 212.822 210.13 213.772C210.288 213.772 210.288 213.93 210.446 213.93C210.288 215.038 209.971 216.305 209.496 217.572ZM217.414 203.004C216.305 205.537 213.772 207.438 211.08 207.754C209.813 207.913 207.438 206.963 204.429 205.379C203.796 205.062 203.004 204.587 202.212 204.271C202.212 204.112 202.054 203.796 201.896 203.637C201.896 203.637 199.362 201.104 199.362 198.57C199.362 197.462 199.837 196.353 200.787 195.403C201.896 194.295 203.479 194.136 204.904 194.136C205.538 194.136 206.171 194.295 206.804 194.453C211.08 195.403 215.83 198.728 217.256 201.895C217.256 202.054 217.414 202.212 217.572 202.37C217.572 202.529 217.572 202.687 217.414 203.004ZM213.297 194.928C213.772 195.086 214.247 195.086 214.564 195.086C214.88 195.086 215.197 195.086 215.355 194.928C215.514 194.928 215.672 194.77 215.83 194.77C216.78 196.195 217.414 197.462 217.731 198.728C216.622 197.303 215.039 196.036 213.297 194.928ZM217.731 193.82C218.997 193.028 220.423 192.078 221.531 191.128C221.056 193.186 220.423 196.036 219.947 199.679C219.789 197.778 219.156 195.72 217.731 193.82Z" fill="#412945"/>
<path d="M146.315 106.411C145.84 107.519 145.523 108.944 146.157 110.053C147.265 111.953 149.957 111.795 152.016 111.32C162.308 109.261 172.759 106.252 183.21 107.203C193.661 108.153 204.588 114.645 206.804 124.779C207.279 127.155 207.438 129.53 206.963 131.905C206.804 132.538 206.804 133.013 206.646 133.647C206.488 134.122 206.488 134.439 206.329 134.914C206.329 135.23 206.171 135.389 206.171 135.705C205.379 138.081 204.271 140.298 202.687 142.356C202.687 142.514 202.529 142.514 202.529 142.673C202.212 142.989 202.054 143.306 201.737 143.781C201.421 144.098 201.104 144.415 200.787 144.89C197.145 148.848 192.553 151.857 187.644 153.916C175.768 159.141 162.15 159.616 149.799 155.974C143.94 154.232 138.556 149.64 132.697 148.69C127.788 147.74 122.721 150.432 117.654 150.274C110.053 149.957 102.611 146.473 96.435 142.198C93.743 140.298 91.2094 138.239 88.8342 135.864C85.5088 132.538 82.8169 128.738 81.5501 124.304C79.1749 116.703 81.8668 107.203 88.9925 103.877C93.9014 101.502 99.6019 102.452 104.827 104.194C109.895 105.936 114.962 108.311 120.187 108.944C130.48 110.211 141.406 103.877 145.365 94.0595C147.107 89.7841 147.582 84.5586 145.048 80.4415C142.04 75.5327 135.864 73.9492 130.163 73.1574C120.346 72.049 110.528 72.8407 100.71 72.3657C90.8927 71.8906 80.7584 69.8321 72.9992 63.8148C66.982 59.2227 63.0232 52.4136 61.123 44.9712C66.8236 40.0624 72.9992 35.4703 79.3332 31.3532C82.1835 33.8868 85.9839 35.1536 89.9426 35.4703C94.6931 35.6286 99.2852 34.3618 103.877 32.9367C120.979 27.3945 137.447 19.3186 155.183 16.6267C172.918 13.7764 193.186 17.4184 204.588 31.3532C213.138 41.9626 215.197 57.3225 210.13 69.9904C205.063 82.6584 193.503 92.3177 180.202 95.643C172.284 97.7016 163.892 97.5432 155.974 99.7601C152.174 100.71 148.057 102.769 146.315 106.411Z" fill="#F7EDE5"/>
<path d="M184.002 271.094H111.953C102.611 271.094 94.8515 263.81 94.3765 254.467L88.0425 135.705H208.546L201.579 254.467C201.104 263.968 193.345 271.094 184.002 271.094Z" fill="#412945"/>
<path d="M103.402 176.56C99.9183 176.56 96.9097 173.868 96.9097 170.226L96.593 155.024C96.593 151.54 99.285 148.532 102.927 148.532C106.411 148.532 109.419 151.224 109.419 154.866L109.736 170.067C109.736 173.551 106.886 176.401 103.402 176.56Z" fill="#F7EDE5"/>
<path d="M108.628 189.861C108.628 193.028 106.411 195.72 103.561 195.878C100.71 195.878 98.3352 193.345 98.3352 190.178C98.3352 187.011 100.552 184.319 103.402 184.16C106.253 184.16 108.628 186.694 108.628 189.861Z" fill="#F7EDE5"/>
<path d="M189.703 238.474C186.219 238.474 183.21 235.782 183.21 232.14L182.894 216.939C182.894 213.455 185.585 210.446 189.228 210.446C192.711 210.446 195.72 213.138 195.72 216.78L196.037 231.982C196.037 235.624 193.186 238.474 189.703 238.474Z" fill="#F7EDE5"/>
<path d="M194.928 251.934C194.928 255.101 192.711 257.793 189.861 257.951C187.011 257.951 184.635 255.418 184.635 252.251C184.635 249.084 186.852 246.392 189.703 246.233C192.553 246.075 194.928 248.608 194.928 251.934Z" fill="#F7EDE5"/>
<path d="M168.326 237.049C156.133 240.533 142.356 237.207 133.172 227.073C120.187 212.98 121.138 190.969 135.389 177.985C145.365 168.8 159.458 166.584 171.334 171.176C166.425 172.601 161.675 175.134 157.558 178.935C143.465 191.919 142.515 213.772 155.341 228.023C158.983 232.14 163.575 235.149 168.326 237.049Z" fill="#FFC063"/>
<path d="M249.717 60.9645L259.693 63.9731C260.801 64.2898 260.801 65.8733 259.693 66.19L249.717 69.0403C249.4 69.1987 249.084 69.357 248.925 69.8321L245.6 80.4415C245.283 81.5499 243.858 81.5499 243.541 80.4415L240.216 70.7822C240.058 70.4655 239.899 70.1488 239.583 70.1488L229.29 66.3484C228.34 66.0317 228.34 64.4482 229.29 64.2898L239.741 61.2812C240.058 61.1228 240.374 60.9645 240.533 60.4895L243.541 50.1968C243.858 49.0883 245.283 49.0883 245.6 50.1968L248.767 60.3311C249.084 60.6478 249.242 60.9645 249.717 60.9645Z" fill="white"/>
<path d="M167.375 287.246L177.351 290.254C178.46 290.571 178.46 292.155 177.351 292.471L167.375 295.322C167.059 295.48 166.742 295.638 166.584 296.113L163.258 306.723C162.942 307.831 161.517 307.831 161.2 306.723L157.875 297.063C157.716 296.747 157.558 296.43 157.241 296.43L146.948 292.63C145.998 292.313 145.998 290.729 146.948 290.571L157.399 287.562C157.716 287.404 158.033 287.246 158.191 286.771L161.2 276.478C161.517 275.369 162.942 275.369 163.258 276.478L166.425 286.612C166.742 286.771 167.059 287.087 167.375 287.246Z" fill="white"/>
<path d="M290.888 145.048L300.864 148.057C301.972 148.373 301.972 149.957 300.864 150.273L290.888 153.124C290.571 153.282 290.255 153.44 290.096 153.916L286.771 164.525C286.454 165.633 285.029 165.633 284.712 164.525L281.387 154.866C281.229 154.549 281.07 154.232 280.754 154.232L270.461 150.432C269.511 150.115 269.511 148.532 270.461 148.373L280.912 145.365C281.229 145.206 281.545 145.048 281.704 144.573L284.712 134.28C285.029 133.172 286.454 133.172 286.771 134.28L289.938 144.415C290.255 144.573 290.571 144.89 290.888 145.048Z" fill="white"/>
<path d="M50.3555 119.079L60.3315 122.087C61.4399 122.404 61.4399 123.988 60.3315 124.304L50.3555 127.155C50.0388 127.313 49.7221 127.471 49.5637 127.946L46.2384 138.556C45.9217 139.664 44.4965 139.664 44.1798 138.556L40.8545 128.896C40.6961 128.58 40.5378 128.263 40.2211 128.263L29.9284 124.463C28.9783 124.146 28.9783 122.562 29.9284 122.404L40.3795 119.395C40.6962 119.237 41.0128 119.079 41.1712 118.604L44.1798 108.311C44.4965 107.203 45.9217 107.203 46.2384 108.311L49.4054 118.445C49.7221 118.604 50.0388 118.92 50.3555 119.079Z" fill="white"/>
<path d="M52.4136 208.546L62.3896 211.555C63.498 211.871 63.498 213.455 62.3896 213.772L52.4136 216.622C52.0969 216.78 51.7802 216.939 51.6218 217.414L48.2965 228.023C47.9798 229.131 46.5546 229.131 46.2379 228.023L42.9126 218.364C42.7543 218.047 42.5959 217.73 42.2792 217.73L31.9865 213.93C31.0364 213.613 31.0364 212.03 31.9865 211.871L42.4376 208.863C42.7542 208.704 43.0709 208.546 43.2293 208.071L46.2379 197.778C46.5546 196.67 47.9798 196.67 48.2965 197.778L51.4635 207.913C51.7802 208.071 52.0969 208.388 52.4136 208.546Z" fill="white"/>
</svg>
