<svg width="40" height="40" viewBox="0 0 40 40" fill="none" xmlns="http://www.w3.org/2000/svg">
<path d="M0.757751 19.9996C0.757639 22.4457 1.23932 24.8678 2.1753 27.1276C3.11128 29.3875 4.48321 31.4409 6.21278 33.1705C7.94234 34.9002 9.99566 36.2722 12.2555 37.2083C14.5153 38.1444 16.9374 38.6262 19.3834 38.6262C21.8294 38.6262 24.2515 38.1444 26.5113 37.2083C28.7712 36.2722 30.8245 34.9002 32.554 33.1705C34.2836 31.4409 35.6555 29.3875 36.5915 27.1276C37.5275 24.8678 38.0092 22.4457 38.0091 19.9996C38.0092 17.5536 37.5275 15.1315 36.5915 12.8717C35.6555 10.6118 34.2836 8.55841 32.554 6.82877C30.8245 5.09913 28.7712 3.72709 26.5113 2.79101C24.2515 1.85493 21.8294 1.37314 19.3834 1.37314C16.9374 1.37314 14.5153 1.85493 12.2555 2.79101C9.99566 3.72709 7.94234 5.09913 6.21278 6.82877C4.48321 8.55841 3.11128 10.6118 2.1753 12.8717C1.23932 15.1315 0.757639 17.5536 0.757751 19.9996Z" fill="#FFDB6C"/>
<path d="M23.3747 35.876C13.0881 35.876 4.7491 27.537 4.7491 17.2504C4.7491 11.7547 7.12982 6.81559 10.9157 3.40635C4.88575 6.48941 0.757751 12.7627 0.757751 20C0.757751 30.2867 9.09671 38.6256 19.3833 38.6256C24.1742 38.6256 28.5421 36.8162 31.8423 33.8443C29.3018 35.1431 26.4239 35.876 23.3747 35.876Z" fill="#FFB04C"/>
<path d="M11.3791 20.2671C9.99586 20.2671 8.87445 21.3884 8.87445 22.7715H13.8835C13.8837 21.3883 12.7624 20.2671 11.3791 20.2671ZM33.2253 20.2671C31.8421 20.2671 30.7207 21.3884 30.7207 22.7715H35.7298C35.7298 21.3883 34.6084 20.2671 33.2253 20.2671Z" fill="#F9A880"/>
<path d="M8.66254 9.9199C13.5258 8.80372 17.4628 9.18787 21.8239 10.2042C22.4706 10.3548 23.1537 10.5229 23.8753 10.5449C25.0769 10.5817 26.4276 10.2826 27.5921 9.99006C32.1898 8.83513 35.7814 9.43584 39.2424 10.1754L38.9867 12.2207C38.4464 12.2326 38.2765 12.4846 38.1221 12.9764C37.3143 15.5502 38.0022 19.9788 32.03 19.4581C28.1011 19.1155 26.9759 18.039 25.1034 13.306C24.9441 12.9034 24.8405 12.2381 23.9307 12.2627C23.4169 12.2766 22.9575 12.3674 22.7972 13.26C22.4986 14.9231 20.2274 19.442 15.6163 19.437C11.5435 19.4326 9.98981 17.3185 9.80434 12.6602C9.78129 12.0818 9.27731 11.9719 8.97488 11.9651L8.66254 9.9199Z" fill="#56586F"/>
<path d="M15.7252 9.27615L12.8809 18.9758C13.6294 19.2838 14.533 19.4358 15.6164 19.4369C15.6355 19.4369 15.6543 19.4362 15.6734 19.4361L18.5671 9.56755C17.6207 9.42443 16.6784 9.32427 15.7252 9.27615ZM33.4124 9.35474C32.4659 9.32443 31.4833 9.35474 30.4513 9.46998L27.9121 18.1292C28.6065 18.7123 29.4263 19.051 30.5085 19.2578L33.4124 9.35474Z" fill="#737891"/>
<path d="M23.2633 33.6452C19.0995 33.6452 15.724 30.2697 15.724 26.1059H30.8025C30.8026 30.2697 27.4271 33.6452 23.2633 33.6452Z" fill="#7F184C"/>
<path d="M17.5635 26.1058V27.2827C17.5635 27.7789 17.9658 28.1811 18.462 28.1811H28.0645C28.5607 28.1811 28.9629 27.7788 28.9629 27.2827V26.1058H17.5635Z" fill="#F2F2F2"/>
<path d="M23.4215 30.5173C21.3836 29.5704 19.1221 29.7081 17.2881 30.69C18.6662 32.4861 20.8332 33.6451 23.272 33.6451C24.312 33.646 25.3408 33.4309 26.2933 33.0135C25.6145 31.9632 24.6412 31.084 23.4215 30.5173Z" fill="#FC4C59"/>
<path d="M39.4007 9.43435C35.7822 8.6613 32.1424 8.06583 27.4073 9.25521C26.2284 9.55146 24.9857 9.82061 23.8983 9.78764C23.2908 9.76904 22.6854 9.62764 22.0998 9.49068L21.9958 9.46631C18.1963 8.58075 13.9307 7.93341 8.49294 9.18138C8.30654 9.22417 8.14321 9.33586 8.03572 9.49405C7.92823 9.65224 7.88454 9.84522 7.91341 10.0343L8.22591 12.0796C8.25282 12.2558 8.34096 12.4168 8.47485 12.5344C8.60873 12.652 8.77978 12.7187 8.95794 12.7227C8.99505 12.7234 9.02552 12.7272 9.04888 12.7316C9.1563 15.3101 9.67138 17.0729 10.669 18.2771C11.736 19.565 13.354 20.1922 15.6155 20.1946H15.624C18.4048 20.1946 20.2953 18.7164 21.3918 17.4757C22.6214 16.0843 23.3583 14.423 23.5431 13.3937C23.5915 13.1245 23.6586 13.0577 23.6589 13.0573C23.6699 13.0502 23.7237 13.0261 23.9515 13.02C24.1874 13.0138 24.1961 13.0137 24.3305 13.3968C24.3536 13.4627 24.3759 13.526 24.3991 13.5845C25.313 15.8944 26.1152 17.5377 27.2897 18.5921C28.5317 19.7071 30.0567 20.0464 31.9644 20.2127C32.3082 20.2427 32.6374 20.2578 32.9521 20.2578C34.8464 20.2578 36.2166 19.7129 37.1236 18.6039C37.1466 18.5757 37.1674 18.5465 37.1895 18.518C37.2299 19.0101 37.2512 19.5046 37.2512 20C37.2512 29.8524 29.2356 37.8678 19.3833 37.8678C9.53099 37.8678 1.5154 29.8524 1.5154 20C1.5154 10.1476 9.53084 2.1322 19.3832 2.1322C23.3308 2.1322 27.0725 3.39354 30.2036 5.77988C30.5364 6.03355 31.012 5.96933 31.2655 5.63652C31.5192 5.30363 31.455 4.82816 31.1221 4.57448C27.7248 1.9854 23.6655 0.616802 19.3831 0.616802C8.69529 0.616724 0 9.31209 0 20C0 30.688 8.69529 39.3834 19.3832 39.3834C30.0712 39.3834 38.7665 30.6881 38.7665 20C38.7665 18.5868 38.6118 17.179 38.3101 15.8105C38.385 15.459 38.4469 15.1099 38.506 14.7728C38.6069 14.1994 38.7022 13.6577 38.8448 13.2034C38.8834 13.0806 38.9111 13.0162 38.9277 12.9835C38.9448 12.9812 38.9696 12.9789 39.0034 12.9781C39.1851 12.9741 39.3593 12.9049 39.4943 12.7831C39.6292 12.6613 39.7159 12.495 39.7384 12.3146L39.9941 10.2693C40.0177 10.0811 39.9698 9.89089 39.8599 9.73629C39.7501 9.58169 39.5862 9.47395 39.4007 9.43435ZM38.301 11.5969C37.6773 11.8633 37.4907 12.4577 37.399 12.7495C37.227 13.298 37.1233 13.8869 37.0137 14.5104C36.9637 14.7952 36.914 15.0752 36.8594 15.3474C36.7813 15.483 36.7473 15.6395 36.762 15.7953C36.3247 17.6374 35.4639 18.9969 32.0958 18.7033C28.5352 18.3928 27.595 17.5441 25.808 13.0273C25.7918 12.9864 25.7765 12.9422 25.7604 12.8961C25.6134 12.4766 25.273 11.5045 23.9818 11.5045C23.9583 11.5045 23.9344 11.5048 23.9104 11.5055C23.4794 11.5172 22.3347 11.548 22.0515 13.1263C21.7958 14.5503 19.7175 18.6795 15.6238 18.6795H15.6172C12.1072 18.6757 10.7369 17.0361 10.5615 12.6303C10.5373 12.0187 10.1889 11.5475 9.64498 11.3335L9.5192 10.5103C14.3342 9.53568 18.1927 10.1363 21.6519 10.9424L21.755 10.9665C22.3823 11.1132 23.0933 11.2794 23.8521 11.3026C25.1273 11.3412 26.4916 11.0481 27.7767 10.7252C31.905 9.68818 35.1881 10.1148 38.4041 10.774L38.301 11.5969Z" fill="black"/>
<path d="M31.5603 26.1058C31.5603 25.6873 31.2211 25.348 30.8025 25.348H15.724C15.6245 25.348 15.5259 25.3676 15.434 25.4057C15.3421 25.4438 15.2585 25.4996 15.1882 25.57C15.1178 25.6403 15.062 25.7239 15.0239 25.8158C14.9858 25.9077 14.9662 26.0063 14.9662 26.1058C14.9662 30.6808 18.6882 34.4028 23.2633 34.4028C27.8383 34.4028 31.5603 30.6808 31.5603 26.1058ZM16.5238 26.8635H30.0028C29.625 30.2477 26.7466 32.8874 23.2633 32.8874C19.78 32.8874 16.9016 30.2477 16.5238 26.8635Z" fill="black"/>
<path d="M31.7675 6.80629C31.7674 6.90581 31.787 7.00436 31.8251 7.09632C31.8632 7.18827 31.919 7.27182 31.9893 7.3422C32.0597 7.41258 32.1432 7.46841 32.2352 7.5065C32.3271 7.54459 32.4257 7.5642 32.5252 7.5642C32.6247 7.5642 32.7233 7.54459 32.8152 7.5065C32.9072 7.46841 32.9907 7.41258 33.0611 7.3422C33.1314 7.27182 33.1872 7.18827 33.2253 7.09632C33.2634 7.00436 33.283 6.90581 33.2829 6.80629C33.283 6.70677 33.2634 6.60821 33.2253 6.51626C33.1872 6.42431 33.1314 6.34076 33.0611 6.27038C32.9907 6.19999 32.9072 6.14416 32.8152 6.10607C32.7233 6.06798 32.6247 6.04838 32.5252 6.04838C32.4257 6.04838 32.3271 6.06798 32.2352 6.10607C32.1432 6.14416 32.0597 6.19999 31.9893 6.27038C31.919 6.34076 31.8632 6.42431 31.8251 6.51626C31.787 6.60821 31.7674 6.70677 31.7675 6.80629Z" fill="black"/>
</svg>
