<svg width="40" height="40" viewBox="0 0 40 40" fill="none" xmlns="http://www.w3.org/2000/svg">
<path d="M0.781799 20.0001C0.781799 22.5239 1.27889 25.0229 2.2447 27.3546C3.21051 29.6863 4.62612 31.8049 6.4107 33.5895C8.19529 35.374 10.3139 36.7896 12.6456 37.7555C14.9772 38.7213 17.4763 39.2184 20.0001 39.2184C22.5239 39.2184 25.0229 38.7213 27.3546 37.7555C29.6863 36.7896 31.8049 35.374 33.5895 33.5895C35.374 31.8049 36.7896 29.6863 37.7555 27.3546C38.7213 25.0229 39.2184 22.5239 39.2184 20.0001C39.2184 17.4763 38.7213 14.9772 37.7555 12.6456C36.7896 10.3139 35.374 8.19528 33.5895 6.4107C31.8049 4.62612 29.6863 3.21051 27.3546 2.2447C25.0229 1.27889 22.5239 0.781796 20.0001 0.781796C17.4763 0.781796 14.9772 1.27889 12.6456 2.2447C10.3139 3.21051 8.19529 4.62612 6.4107 6.4107C4.62612 8.19528 3.21051 10.3139 2.2447 12.6456C1.27889 14.9772 0.781799 17.4763 0.781799 20.0001Z" fill="#FDDF6D"/>
<path d="M24.1184 36.3811C13.5045 36.3811 4.90016 27.7769 4.90016 17.1629C4.90016 11.4923 7.35664 6.39602 11.263 2.87836C5.04117 6.05953 0.781799 12.5323 0.781799 20C0.781799 30.6139 9.38602 39.2182 20 39.2182C24.9433 39.2182 29.4502 37.3512 32.8554 34.2847C30.2341 35.6249 27.2646 36.3811 24.1184 36.3811Z" fill="#FCC56B"/>
<path d="M20.9727 28.228C20.9727 28.7092 21.0675 29.1857 21.2516 29.6303C21.4358 30.0748 21.7057 30.4787 22.0459 30.819C22.3862 31.1592 22.7901 31.4291 23.2347 31.6133C23.6792 31.7974 24.1557 31.8922 24.6369 31.8922C25.118 31.8922 25.5945 31.7974 26.0391 31.6133C26.4836 31.4291 26.8876 31.1592 27.2278 30.819C27.568 30.4787 27.8379 30.0748 28.0221 29.6303C28.2062 29.1857 28.301 28.7092 28.301 28.228C28.301 27.7469 28.2062 27.2704 28.0221 26.8258C27.8379 26.3813 27.568 25.9774 27.2278 25.6371C26.8876 25.2969 26.4836 25.027 26.0391 24.8428C25.5945 24.6587 25.118 24.5639 24.6369 24.5639C24.1557 24.5639 23.6792 24.6587 23.2347 24.8428C22.7901 25.027 22.3862 25.2969 22.0459 25.6371C21.7057 25.9774 21.4358 26.3813 21.2516 26.8258C21.0675 27.2704 20.9727 27.7469 20.9727 28.228Z" fill="#7F184C"/>
<path d="M38.4753 12.3284C38.178 11.3191 37.5168 10.3987 36.5518 9.67641C35.1106 8.59781 33.2703 8.16258 31.6296 8.51242C30.0547 8.8482 28.7279 9.90024 27.8937 11.4748C27.1391 12.899 26.8781 14.5907 27.1777 16.1159C27.8496 19.5377 31.2197 21.5222 34.1229 21.5222C34.2573 21.5222 34.391 21.5179 34.5232 21.5094C34.9541 21.4813 35.2807 21.1094 35.2528 20.6786C35.2462 20.5761 35.2194 20.476 35.1741 20.3839C35.1288 20.2917 35.0657 20.2094 34.9886 20.1417C34.9114 20.0739 34.8217 20.022 34.7245 19.989C34.6273 19.9559 34.5245 19.9423 34.422 19.949C33.2297 20.0266 31.9323 19.6558 30.863 18.9326C29.7189 18.1584 28.9551 17.0512 28.7122 15.8145C28.4839 14.6523 28.6945 13.3035 29.2755 12.2069C29.8895 11.0483 30.8412 10.2793 31.9559 10.0416C33.1441 9.78852 34.5461 10.128 35.6151 10.9282C36.0177 11.2297 36.3444 11.5736 36.5877 11.9443C36.7327 12.2417 36.8696 12.543 36.9984 12.8477C37.0417 13.0104 37.07 13.1766 37.0829 13.3445C37.1519 14.2543 36.7627 15.2689 36.0421 16.0585C35.4177 16.7427 34.6409 17.1417 33.9108 17.153C33.1041 17.1641 32.2494 16.7297 31.729 16.0426C31.6065 15.8809 31.0055 15.0243 31.2076 14.0376C31.2528 13.8167 31.337 13.4055 31.6912 13.0934C32.0638 12.7652 32.5216 12.7388 32.6579 12.7388H32.6609C33.3887 12.7409 34.188 13.311 34.2443 13.8648C34.2521 13.9565 34.2445 14.3234 34.064 14.443C33.9771 14.5005 33.806 14.5498 33.7234 14.4887C33.6516 14.4357 33.6177 14.3209 33.639 14.2029C33.7156 13.778 33.4333 13.3713 33.0084 13.2946C32.5834 13.2183 32.1769 13.5002 32.1002 13.9252C31.9736 14.6266 32.2461 15.3415 32.7945 15.7466C33.4912 16.2611 34.3679 16.1171 34.9274 15.7466C35.9106 15.0952 35.8145 13.8501 35.8004 13.7102C35.6765 12.4902 34.3873 11.1803 32.6657 11.1751C32.3147 11.1756 31.4247 11.2447 30.6579 11.92C29.9102 12.5785 29.7399 13.4109 29.6758 13.7241C29.3471 15.3297 30.2103 16.6277 30.4827 16.987C31.3062 18.0743 32.6288 18.7355 33.9354 18.7168C35.0947 18.6987 36.2836 18.1141 37.1973 17.1128C37.509 16.7713 37.7785 16.3936 38.0002 15.9878C38.2896 17.2928 38.4367 18.6329 38.4367 20.0003C38.4367 30.1662 30.1663 38.4366 20.0004 38.4366C9.83453 38.4366 1.56367 30.1659 1.56367 20C1.56367 9.83406 9.83406 1.56367 20 1.56367C23.3896 1.56367 26.7027 2.49102 29.5813 4.24578C29.9499 4.47055 30.431 4.35375 30.6559 3.98508C30.8806 3.61641 30.7638 3.13539 30.3952 2.91055C27.2713 1.00633 23.6768 0 20 0C8.97187 0 0 8.97187 0 20C0 31.028 8.97187 40 20 40C31.0281 40 40 31.0281 40 20.0001C40 17.3306 39.4871 14.7557 38.4753 12.3284Z" fill="black"/>
<path d="M24.6369 32.6737C27.0882 32.6737 29.0825 30.6795 29.0825 28.2282C29.0825 25.7768 27.0882 23.7827 24.6369 23.7827C22.1857 23.7827 20.1914 25.777 20.1914 28.2282C20.1914 30.6796 22.1857 32.6737 24.6369 32.6737ZM24.6369 25.3463C26.226 25.3463 27.5188 26.6391 27.5188 28.2282C27.5188 29.8173 26.226 31.1101 24.6369 31.1101C23.0479 31.1101 21.7551 29.8173 21.7551 28.2282C21.7551 26.6391 23.0479 25.3463 24.6369 25.3463ZM18.5461 13.2945C18.1212 13.2181 17.7145 13.5 17.6378 13.925C17.5112 14.6265 17.7837 15.3415 18.3322 15.7464C19.029 16.2609 19.9054 16.117 20.4652 15.7464C21.4483 15.0951 21.3523 13.8499 21.338 13.71C21.2141 12.4901 19.925 11.1802 18.2033 11.1749C17.8539 11.1748 16.9624 11.2445 16.1955 11.9198C15.4481 12.5781 15.2776 13.4105 15.2134 13.724C14.8847 15.3299 15.7481 16.6276 16.0204 16.9868C16.8439 18.0743 18.1669 18.7377 19.473 18.7166C20.6323 18.6985 21.8213 18.1139 22.735 17.1126C23.7406 16.0106 24.2808 14.5578 24.1798 13.2263C24.0769 11.8689 23.3347 10.6084 22.0898 9.67656C20.6486 8.59774 18.8083 8.16266 17.1676 8.5125C15.5927 8.84828 14.2659 9.90031 13.4315 11.4749C12.677 12.8991 12.416 14.5908 12.7155 16.1159C13.3875 19.5377 16.7576 21.5223 19.6608 21.5223C19.7951 21.5223 19.9289 21.518 20.0611 21.5095C20.4919 21.4814 20.8186 21.1095 20.7907 20.6787C20.7841 20.5762 20.7573 20.476 20.712 20.3839C20.6667 20.2918 20.6036 20.2095 20.5265 20.1417C20.4493 20.074 20.3596 20.0221 20.2624 19.989C20.1651 19.956 20.0624 19.9424 19.9599 19.9491C18.7676 20.0264 17.4701 19.6559 16.4009 18.9327C15.2568 18.1585 14.493 17.0513 14.2501 15.8145C14.0219 14.6523 14.2325 13.3036 14.8135 12.207C15.4274 11.0484 16.3792 10.2794 17.4938 10.0417C18.6821 9.78859 20.084 10.1281 21.153 10.9283C22.0313 11.5858 22.5525 12.4438 22.6208 13.3445C22.6898 14.2544 22.3008 15.269 21.5802 16.0585C20.9558 16.7427 20.179 17.1418 19.4487 17.1532C18.6412 17.1642 17.7874 16.7298 17.2668 16.0426C17.1443 15.8809 16.5434 15.0246 16.7455 14.0378C16.7907 13.8168 16.8749 13.4055 17.2291 13.0934C17.6046 12.7627 18.0672 12.7423 18.1988 12.7388C18.9266 12.741 19.7258 13.3111 19.7822 13.8648C19.79 13.9566 19.7824 14.3234 19.6019 14.443C19.5151 14.5006 19.3437 14.5499 19.2612 14.4888C19.1894 14.4358 19.1555 14.321 19.1768 14.203C19.2533 13.7778 18.971 13.3712 18.5461 13.2945Z" fill="black"/>
<path d="M31.5513 5.32789C31.5513 5.53524 31.6337 5.73409 31.7803 5.8807C31.9269 6.02732 32.1258 6.10969 32.3331 6.10969C32.5405 6.10969 32.7393 6.02732 32.8859 5.8807C33.0326 5.73409 33.1149 5.53524 33.1149 5.32789C33.1149 5.12054 33.0326 4.92169 32.8859 4.77508C32.7393 4.62846 32.5405 4.54609 32.3331 4.54609C32.1258 4.54609 31.9269 4.62846 31.7803 4.77508C31.6337 4.92169 31.5513 5.12054 31.5513 5.32789Z" fill="black"/>
</svg>
