<svg width="40" height="40" viewBox="0 0 40 40" fill="none" xmlns="http://www.w3.org/2000/svg">
<path d="M0.703857 19.9754C0.703857 24.2661 2.40835 28.3811 5.44237 31.4152C8.47638 34.4492 12.5914 36.1537 16.8821 36.1537C21.1729 36.1537 25.2879 34.4492 28.3219 31.4152C31.3559 28.3811 33.0604 24.2661 33.0604 19.9754C33.0604 15.6846 31.3559 11.5696 28.3219 8.53562C25.2879 5.5016 21.1729 3.79711 16.8821 3.79711C12.5914 3.79711 8.47638 5.5016 5.44237 8.53562C2.40835 11.5696 0.703857 15.6846 0.703857 19.9754Z" fill="#FDDF6D"/>
<path d="M20.3493 33.7652C11.4143 33.7652 4.17112 26.522 4.17112 17.587C4.17112 12.8134 6.23901 8.52328 9.52744 5.56203C4.28979 8.24 0.704163 13.6889 0.704163 19.9753C0.704163 28.9103 7.94737 36.1535 16.8824 36.1535C21.0438 36.1535 24.8377 34.5819 27.7042 32.0004C25.4976 33.1287 22.9978 33.7652 20.3493 33.7652Z" fill="#FCC56B"/>
<path d="M12.0908 18.1308C12.0908 18.3901 12.1418 18.6468 12.2411 18.8864C12.3403 19.1259 12.4857 19.3436 12.6691 19.5269C12.8524 19.7103 13.0701 19.8557 13.3096 19.9549C13.5492 20.0542 13.8059 20.1052 14.0652 20.1052C14.3245 20.1052 14.5813 20.0542 14.8208 19.9549C15.0604 19.8557 15.278 19.7103 15.4614 19.5269C15.6447 19.3436 15.7901 19.1259 15.8894 18.8864C15.9886 18.6468 16.0397 18.3901 16.0397 18.1308C16.0397 17.8715 15.9886 17.6147 15.8894 17.3752C15.7901 17.1356 15.6447 16.918 15.4614 16.7346C15.278 16.5513 15.0604 16.4058 14.8208 16.3066C14.5813 16.2074 14.3245 16.1563 14.0652 16.1563C13.8059 16.1563 13.5492 16.2074 13.3096 16.3066C13.0701 16.4058 12.8524 16.5513 12.6691 16.7346C12.4857 16.918 12.3403 17.1356 12.2411 17.3752C12.1418 17.6147 12.0908 17.8715 12.0908 18.1308Z" fill="white"/>
<path d="M23.2065 18.1308C23.2065 18.6544 23.4146 19.1566 23.7848 19.5269C24.1551 19.8972 24.6573 20.1052 25.181 20.1052C25.7047 20.1052 26.2069 19.8972 26.5771 19.5269C26.9474 19.1566 27.1554 18.6544 27.1554 18.1308C27.1554 17.6071 26.9474 17.1049 26.5771 16.7346C26.2069 16.3643 25.7047 16.1563 25.181 16.1563C24.6573 16.1563 24.1551 16.3643 23.7848 16.7346C23.4146 17.1049 23.2065 17.6071 23.2065 18.1308Z" fill="white"/>
<path d="M11.8485 23.2391C10.6471 23.2391 9.6731 24.2131 9.6731 25.4146H14.024C14.024 24.2132 13.05 23.2391 11.8485 23.2391ZM26.73 22.9093C26.73 21.7079 27.704 20.7339 28.9054 20.7339C30.1068 20.7339 31.0808 21.7079 31.0808 22.9093" fill="#F9A880"/>
<path d="M25.0115 24.103L24.2418 28.7102L29.0046 27.8493L38.6007 17.4156C39.6353 16.313 39.5799 14.5805 38.4773 13.5459C37.3746 12.5115 35.6421 12.5667 34.6076 13.6694L25.0115 24.103Z" fill="white"/>
<path d="M25.2388 28.3149C25.1104 28.3148 24.9849 28.2772 24.8776 28.2067C24.7703 28.1363 24.686 28.0359 24.635 27.9181C24.5841 27.8003 24.5686 27.6702 24.5906 27.5438C24.6126 27.4173 24.6711 27.3 24.7589 27.2064L35.5658 15.6872C35.686 15.5632 35.8502 15.4914 36.0228 15.4874C36.1955 15.4833 36.3628 15.5472 36.4888 15.6654C36.6147 15.7836 36.6892 15.9465 36.6961 16.1191C36.7031 16.2916 36.6419 16.46 36.5258 16.5879L25.7189 28.1071C25.6574 28.1728 25.583 28.2252 25.5004 28.2609C25.4178 28.2967 25.3288 28.315 25.2388 28.3149Z" fill="#FC4C59"/>
<path d="M14.6557 30.1518C14.5184 30.1519 14.3846 30.1091 14.2729 30.0293C14.1612 29.9496 14.0772 29.8369 14.0327 29.7071C13.9882 29.5772 13.9854 29.4367 14.0247 29.3052C14.064 29.1737 14.1434 29.0578 14.2519 28.9737C15.549 27.9674 17.8097 27.3423 20.1518 27.3423C22.6001 27.3423 24.799 27.9577 26.0336 28.9885C26.1008 29.0436 26.1564 29.1115 26.1972 29.1882C26.238 29.265 26.2632 29.349 26.2714 29.4355C26.2796 29.5221 26.2705 29.6094 26.2448 29.6924C26.219 29.7754 26.1771 29.8525 26.1214 29.9192C26.0657 29.9859 25.9973 30.0409 25.9202 30.081C25.8431 30.1212 25.7589 30.1457 25.6723 30.1531C25.5857 30.1605 25.4985 30.1507 25.4157 30.1242C25.3329 30.0977 25.2562 30.0551 25.19 29.9988C24.1998 29.1721 22.2693 28.6586 20.1518 28.6586C18.0876 28.6586 16.1361 29.1778 15.0587 30.0137C14.9434 30.1032 14.8016 30.1519 14.6557 30.1518Z" fill="#7F184C"/>
<path d="M28.8947 9.59133H5.46547C3.86547 9.59133 2.56836 8.29422 2.56836 6.69422C2.56836 5.09422 3.86547 3.79711 5.46547 3.79711H28.8946C30.4946 3.79711 31.7917 5.09422 31.7917 6.69422C31.7918 8.29422 30.4947 9.59133 28.8947 9.59133Z" fill="#3FA9F5"/>
<path d="M6.72547 6.69422C6.72547 5.09422 8.02258 3.79711 9.62258 3.79711H5.46547C3.86547 3.79711 2.56836 5.09422 2.56836 6.69422C2.56836 8.29422 3.86547 9.59133 5.46547 9.59133H9.62242C8.02258 9.59133 6.72547 8.29422 6.72547 6.69422Z" fill="#3784F4"/>
<path d="M16.6977 18.1306C16.6977 16.6789 15.5167 15.4979 14.0651 15.4979C12.6134 15.4979 11.4324 16.6789 11.4324 18.1306C11.4324 19.5822 12.6134 20.7632 14.0651 20.7632C15.5167 20.7632 16.6977 19.5822 16.6977 18.1306ZM12.7488 18.1306C12.7488 17.4048 13.3393 16.8142 14.0652 16.8142C14.7909 16.8142 15.3815 17.4047 15.3815 18.1306C15.3815 18.8564 14.791 19.4469 14.0652 19.4469C13.3393 19.4469 12.7488 18.8564 12.7488 18.1306ZM27.8139 18.1306C27.8139 16.6789 26.6329 15.4979 25.1813 15.4979C23.7296 15.4979 22.5486 16.6789 22.5486 18.1306C22.5486 19.5822 23.7296 20.7632 25.1813 20.7632C26.6329 20.7632 27.8139 19.5822 27.8139 18.1306ZM23.8649 18.1306C23.8649 17.4048 24.4554 16.8142 25.1813 16.8142C25.9071 16.8142 26.4976 17.4047 26.4976 18.1306C26.4976 18.8564 25.9071 19.4469 25.1813 19.4469C24.4554 19.4469 23.8649 18.8564 23.8649 18.1306Z" fill="black"/>
<path d="M39.9983 15.4342C39.9693 14.5277 39.5891 13.6865 38.9276 13.066C38.2661 12.4454 37.4029 12.1194 36.4959 12.1484C35.5894 12.1773 34.7482 12.5576 34.1233 13.2238L32.7987 14.6641C32.2276 12.9716 31.3927 11.38 30.3247 9.94828C31.5748 9.39672 32.45 8.14609 32.45 6.69429C32.45 4.73398 30.8552 3.13906 28.8948 3.13906H5.46547C3.50516 3.13906 1.91023 4.73398 1.91023 6.69429C1.91023 8.65469 3.50508 10.2496 5.46547 10.2496H28.89C30.21 11.8766 31.1992 13.7777 31.7689 15.7835L24.527 23.6576C24.4433 23.7485 24.3869 23.8612 24.3642 23.9827L23.8595 26.6962C23.8576 26.7059 23.856 26.7157 23.8547 26.7255L23.7011 27.8234C22.6559 27.5124 21.4384 27.3422 20.1517 27.3422C17.8097 27.3422 15.5488 27.9673 14.2517 28.9737C14.1834 29.0266 14.1262 29.0926 14.0834 29.1676C14.0406 29.2427 14.013 29.3255 14.0022 29.4112C13.9913 29.497 13.9975 29.584 14.0203 29.6674C14.0431 29.7507 14.0821 29.8288 14.1351 29.8971C14.1881 29.9654 14.254 30.0225 14.3291 30.0654C14.4041 30.1082 14.4869 30.1358 14.5727 30.1466C14.6584 30.1574 14.7455 30.1513 14.8288 30.1285C14.9122 30.1057 14.9902 30.0666 15.0585 30.0137C16.136 29.1778 18.0876 28.6585 20.1516 28.6585C21.5746 28.6585 22.9126 28.8907 23.938 29.2937C23.9756 29.3133 24.0149 29.3292 24.0555 29.3412C24.5054 29.5283 24.8907 29.7492 25.1898 29.999C25.3238 30.1108 25.4967 30.1649 25.6705 30.1493C25.8444 30.1336 26.0049 30.0496 26.1168 29.9156C26.3085 29.6859 26.3168 29.3645 26.1583 29.128L26.3337 29.1054C26.3529 29.103 26.372 29.0996 26.3908 29.0955L29.145 28.4923C29.2771 28.4634 29.3971 28.3945 29.4887 28.295L30.7433 26.9309C28.1685 32.1274 22.8291 35.5448 16.836 35.5448C8.27828 35.5447 1.31602 28.5824 1.31602 20.0246C1.31602 18.7011 1.48273 17.3868 1.81156 16.1184C1.85535 15.9494 1.83024 15.7699 1.74173 15.6195C1.65322 15.469 1.50858 15.3599 1.33961 15.3161C1.25594 15.2944 1.16881 15.2893 1.0832 15.3013C0.997583 15.3132 0.915166 15.342 0.840657 15.3858C0.766149 15.4296 0.70101 15.4877 0.648965 15.5567C0.59692 15.6258 0.55899 15.7044 0.537344 15.788C0.180937 17.1645 0 18.5898 0 20.0246C0 29.3082 7.55273 36.861 16.8364 36.861C24.4849 36.861 31.1513 31.7288 33.1083 24.3598L39.0807 17.8659C39.7014 17.2045 40.0272 16.3408 39.9983 15.4342ZM3.22664 6.69422C3.22664 5.45969 4.23102 4.45523 5.46562 4.45523H28.8948C30.1293 4.45523 31.1337 5.45961 31.1337 6.69422C31.1337 7.92883 30.1294 8.93328 28.8948 8.93328H5.46547C4.23094 8.9332 3.22664 7.92867 3.22664 6.69422ZM38.1162 16.9701L28.6608 27.2508L26.1379 27.8033L26.0052 27.8203L36.5348 16.5968C36.653 16.4693 36.716 16.3002 36.7099 16.1264C36.7039 15.9526 36.6293 15.7882 36.5025 15.6692C36.3757 15.5503 36.2069 15.4863 36.0331 15.4913C35.8593 15.4964 35.6945 15.57 35.5748 15.6961L25.1847 26.7711L25.624 24.4094L32.9823 16.4089C32.9873 16.4034 32.9923 16.3982 32.9972 16.3927L35.0877 14.1198C35.4677 13.7147 35.9827 13.4818 36.5379 13.4641C37.0941 13.447 37.622 13.6459 38.027 14.0259C38.432 14.406 38.6649 14.921 38.6827 15.4762C38.7004 16.0313 38.5008 16.5602 38.1162 16.9701Z" fill="black"/>
<path d="M1.3186 13.5992C1.3186 13.7738 1.38794 13.9412 1.51136 14.0646C1.63479 14.188 1.80218 14.2573 1.97673 14.2573C2.15127 14.2573 2.31867 14.188 2.44209 14.0646C2.56552 13.9412 2.63485 13.7738 2.63485 13.5992C2.63485 13.4247 2.56552 13.2573 2.44209 13.1339C2.31867 13.0104 2.15127 12.9411 1.97673 12.9411C1.80218 12.9411 1.63479 13.0104 1.51136 13.1339C1.38794 13.2573 1.3186 13.4247 1.3186 13.5992Z" fill="black"/>
</svg>
