<svg width="40" height="40" viewBox="0 0 40 40" fill="none" xmlns="http://www.w3.org/2000/svg">
<path d="M39.2182 20C39.2182 30.6139 30.614 39.2182 20 39.2182C9.38602 39.2182 0.781799 30.6139 0.781799 20C0.781799 9.3861 9.3861 0.781799 20 0.781799C22.5556 0.781799 24.9948 1.28063 27.2254 2.18625C34.2586 5.0418 39.2182 11.9418 39.2182 20Z" fill="#FDDF6D"/>
<path d="M24.1184 36.3811C13.5045 36.3811 4.90016 27.7769 4.90016 17.1629C4.90016 11.4923 7.35664 6.39601 11.263 2.87836C5.04117 6.05953 0.781799 12.5323 0.781799 20C0.781799 30.6139 9.38602 39.2182 20 39.2182C24.9433 39.2182 29.4502 37.3512 32.8554 34.2847C30.2341 35.6249 27.2646 36.3811 24.1184 36.3811Z" fill="#FCC56B"/>
<path d="M19.2417 14.833C18.8099 14.833 18.4599 14.4829 18.4599 14.0512C18.4599 13.0427 17.6395 12.2223 16.6311 12.2223C15.6226 12.2223 14.8022 13.0428 14.8022 14.0512C14.8022 14.483 14.4522 14.833 14.0204 14.833C13.5886 14.833 13.2386 14.4829 13.2386 14.0512C13.2386 12.1805 14.7606 10.6587 16.6311 10.6587C18.5017 10.6587 20.0236 12.1805 20.0236 14.0512C20.0236 14.4829 19.6735 14.833 19.2417 14.833ZM32.4466 14.833C32.0148 14.833 31.6648 14.4829 31.6648 14.0512C31.6648 13.0427 30.8444 12.2223 29.836 12.2223C28.8276 12.2223 28.0072 13.0428 28.0072 14.0512C28.0072 14.483 27.6571 14.833 27.2254 14.833C26.7936 14.833 26.4436 14.4829 26.4436 14.0512C26.4436 12.1805 27.9655 10.6587 29.8361 10.6587C31.7066 10.6587 33.2286 12.1805 33.2286 14.0512C33.2284 14.4829 32.8784 14.833 32.4466 14.833Z" fill="#7F184C"/>
<path d="M22.7963 34.0443C17.2407 34.0443 12.7371 29.5407 12.7371 23.9852H32.8554C32.8554 29.5406 28.3517 34.0443 22.7963 34.0443Z" fill="white"/>
<path d="M11.7413 18.8102C10.3141 18.8102 9.15704 19.9673 9.15704 21.3945H14.3256C14.3254 19.9673 13.1684 18.8102 11.7413 18.8102ZM34.2824 18.8102C32.8552 18.8102 31.6981 19.9673 31.6981 21.3945H36.8666C36.8667 19.9673 35.7097 18.8102 34.2824 18.8102Z" fill="#F9A880"/>
<path d="M13.726 28.3398C13.9902 28.8883 14.3035 29.4116 14.6623 29.9034H30.9302C31.289 29.4116 31.6024 28.8883 31.8665 28.3398H13.726Z" fill="#E6E6E6"/>
<path d="M36.5527 8.77133C34.3518 5.53289 31.2841 3.02836 27.6815 1.52859C27.2832 1.36266 26.8252 1.55125 26.6593 1.94984C26.4934 2.34844 26.682 2.80617 27.0805 2.97219C33.9789 5.84406 38.4362 12.528 38.4362 20.0001C38.4362 30.166 30.1658 38.4364 19.9999 38.4364C9.83406 38.4364 1.56367 30.1658 1.56367 20C1.56367 9.83422 9.83406 1.56367 20 1.56367C20.4318 1.56367 20.7818 1.21359 20.7818 0.781875C20.7818 0.350156 20.4318 0 20 0C8.97187 0 0 8.97187 0 20C0 31.0281 8.97187 40 20 40C31.0281 40 40 31.0281 40 20C40 15.9724 38.808 12.0897 36.5527 8.77133Z" fill="black"/>
<path d="M14.8022 14.0512C14.8022 13.0427 15.6227 12.2223 16.631 12.2223C17.6394 12.2223 18.4599 13.0427 18.4599 14.0512C18.4599 14.483 18.8099 14.833 19.2417 14.833C19.6735 14.833 20.0235 14.4829 20.0235 14.0512C20.0235 12.1805 18.5016 10.6587 16.631 10.6587C14.7603 10.6587 13.2385 12.1805 13.2385 14.0512C13.2385 14.483 13.5885 14.833 14.0203 14.833C14.4522 14.833 14.8022 14.483 14.8022 14.0512ZM29.836 10.6587C27.9653 10.6587 26.4435 12.1806 26.4435 14.0512C26.4435 14.483 26.7935 14.833 27.2253 14.833C27.657 14.833 28.0071 14.483 28.0071 14.0512C28.0071 13.0428 28.8275 12.2224 29.8359 12.2224C30.8442 12.2224 31.6647 13.0428 31.6647 14.0512C31.6647 14.483 32.0148 14.833 32.4465 14.833C32.8782 14.833 33.2283 14.483 33.2283 14.0512C33.2285 12.1806 31.7067 10.6587 29.836 10.6587ZM11.9553 23.9851C11.9553 29.9628 16.8185 34.8261 22.7963 34.8261C28.774 34.8261 33.6373 29.9628 33.6373 23.9851C33.6373 23.5533 33.2872 23.2033 32.8555 23.2033H12.7371C12.3053 23.2033 11.9553 23.5534 11.9553 23.9851ZM32.041 24.7669C31.6428 29.5181 27.6485 33.2625 22.7963 33.2625C17.944 33.2625 13.9498 29.5182 13.5516 24.7669H32.041Z" fill="black"/>
<path d="M23.878 1.36766C23.878 1.575 23.9604 1.77386 24.107 1.92047C24.2536 2.06709 24.4524 2.14945 24.6598 2.14945C24.8671 2.14945 25.066 2.06709 25.2126 1.92047C25.3592 1.77386 25.4416 1.575 25.4416 1.36766C25.4416 1.16031 25.3592 0.96146 25.2126 0.814844C25.066 0.668229 24.8671 0.585861 24.6598 0.585861C24.4524 0.585861 24.2536 0.668229 24.107 0.814844C23.9604 0.96146 23.878 1.16031 23.878 1.36766Z" fill="black"/>
</svg>
