<svg width="40" height="40" viewBox="0 0 40 40" fill="none" xmlns="http://www.w3.org/2000/svg">
<path d="M0.781799 20.0001C0.781799 22.5239 1.27889 25.0229 2.2447 27.3546C3.21051 29.6863 4.62612 31.8049 6.4107 33.5895C8.19529 35.374 10.3139 36.7896 12.6456 37.7555C14.9772 38.7213 17.4763 39.2184 20.0001 39.2184C22.5239 39.2184 25.0229 38.7213 27.3546 37.7555C29.6863 36.7896 31.8049 35.374 33.5895 33.5895C35.374 31.8049 36.7896 29.6863 37.7555 27.3546C38.7213 25.0229 39.2184 22.5239 39.2184 20.0001C39.2184 17.4763 38.7213 14.9772 37.7555 12.6456C36.7896 10.3139 35.374 8.19529 33.5895 6.4107C31.8049 4.62612 29.6863 3.21051 27.3546 2.2447C25.0229 1.27889 22.5239 0.781799 20.0001 0.781799C17.4763 0.781799 14.9772 1.27889 12.6456 2.2447C10.3139 3.21051 8.19529 4.62612 6.4107 6.4107C4.62612 8.19529 3.21051 10.3139 2.2447 12.6456C1.27889 14.9772 0.781799 17.4763 0.781799 20.0001Z" fill="#FDDF6D"/>
<path d="M24.1184 36.3811C13.5045 36.3811 4.90016 27.7769 4.90016 17.1629C4.90016 11.4923 7.35664 6.39601 11.263 2.87836C5.04117 6.05953 0.781799 12.5323 0.781799 20C0.781799 30.6139 9.38602 39.2182 20 39.2182C24.9433 39.2182 29.4502 37.3512 32.8554 34.2847C30.2341 35.6249 27.2646 36.3811 24.1184 36.3811Z" fill="#FCC56B"/>
<path d="M22.7962 32.9043C18.5 32.9043 15.0171 29.4214 15.0171 25.1252H30.5754C30.5754 29.4214 27.0925 32.9043 22.7962 32.9043Z" fill="#7F184C"/>
<path d="M14.3074 14.0509C14.3074 14.673 14.5545 15.2696 14.9944 15.7094C15.4343 16.1493 16.0308 16.3964 16.6529 16.3964C17.275 16.3964 17.8715 16.1493 18.3114 15.7094C18.7513 15.2696 18.9984 14.673 18.9984 14.0509C18.9984 13.7429 18.9377 13.4379 18.8198 13.1534C18.702 12.8688 18.5292 12.6102 18.3114 12.3924C18.0936 12.1746 17.835 12.0019 17.5505 11.884C17.2659 11.7661 16.9609 11.7055 16.6529 11.7055C16.3449 11.7055 16.0399 11.7661 15.7553 11.884C15.4708 12.0019 15.2122 12.1746 14.9944 12.3924C14.7766 12.6102 14.6038 12.8688 14.486 13.1534C14.3681 13.4379 14.3074 13.7429 14.3074 14.0509Z" fill="white"/>
<path d="M27.5129 14.0509C27.5129 14.673 27.76 15.2696 28.1999 15.7094C28.6397 16.1493 29.2363 16.3964 29.8583 16.3964C30.4804 16.3964 31.077 16.1493 31.5168 15.7094C31.9567 15.2696 32.2038 14.673 32.2038 14.0509C32.2038 13.4289 31.9567 12.8323 31.5168 12.3924C31.077 11.9526 30.4804 11.7055 29.8583 11.7055C29.2363 11.7055 28.6397 11.9526 28.1999 12.3924C27.76 12.8323 27.5129 13.4289 27.5129 14.0509Z" fill="white"/>
<path d="M22.9504 29.677C20.8476 28.7001 18.5142 28.842 16.6219 29.8553C18.0438 31.7085 20.2798 32.9044 22.7961 32.9044C23.8692 32.9054 24.9307 32.6834 25.9135 32.2527C25.2132 31.1688 24.2089 30.2617 22.9504 29.677Z" fill="#FC4C59"/>
<path d="M11.7411 18.8102C10.3139 18.8102 9.15686 19.9673 9.15686 21.3945H14.3254C14.3254 19.9673 13.1684 18.8102 11.7411 18.8102ZM34.2823 18.464C32.8551 18.464 31.6981 19.621 31.6981 21.0482H36.8666C36.8665 19.6209 35.7095 18.464 34.2823 18.464Z" fill="#F9A880"/>
<path d="M17.0618 25.1252V26.3394C17.0618 26.8515 17.4768 27.2665 17.9888 27.2665H27.8968C28.4089 27.2665 28.8239 26.8514 28.8239 26.3394V25.1252H17.0618Z" fill="#F2F2F2"/>
<path d="M23.3856 8.28165C24.4098 8.57148 25.4563 8.62224 26.2949 8.42276C27.1336 8.22329 27.6957 7.78991 27.8575 7.21797C28.0194 6.64604 27.7677 5.98239 27.158 5.37303C26.5482 4.76367 25.6303 4.25851 24.6061 3.96868C23.582 3.67885 22.5355 3.6281 21.6968 3.82757C20.8582 4.02705 20.2961 4.46043 20.1342 5.03236C19.9724 5.6043 20.224 6.26794 20.8338 6.87731C21.4435 7.48667 22.3614 7.99183 23.3856 8.28165Z" fill="#FCEB88"/>
<path d="M36.5407 8.75375C34.3319 5.51117 31.2546 3.00703 27.6416 1.51211C27.2427 1.34711 26.7853 1.53672 26.6202 1.93562C26.4552 2.33469 26.6448 2.79187 27.0438 2.95703C30.3745 4.33516 33.2115 6.64414 35.2484 9.63414C37.3339 12.6959 38.4364 16.2802 38.4364 20.0001C38.4364 30.166 30.1659 38.4364 20.0001 38.4364C9.83422 38.4364 1.56367 30.1658 1.56367 20C1.56367 9.83422 9.83406 1.56367 20 1.56367C20.4318 1.56367 20.7818 1.21359 20.7818 0.781875C20.7818 0.350156 20.4318 0 20 0C8.97187 0 0 8.97187 0 20C0 31.0281 8.97187 40 20 40C31.0281 40 40 31.0281 40 20C40 15.9648 38.8038 12.0759 36.5407 8.75375Z" fill="black"/>
<path d="M19.7807 14.0512C19.7807 12.3269 18.3778 10.924 16.6535 10.924C14.9291 10.924 13.5262 12.3269 13.5262 14.0512C13.5262 15.7756 14.9291 17.1785 16.6535 17.1785C18.3778 17.1785 19.7807 15.7756 19.7807 14.0512ZM15.0898 14.0512C15.0898 13.1891 15.7913 12.4876 16.6535 12.4876C17.5156 12.4876 18.2171 13.1891 18.2171 14.0512C18.2171 14.9134 17.5156 15.6149 16.6535 15.6149C15.7913 15.6149 15.0898 14.9134 15.0898 14.0512ZM32.9856 14.0512C32.9856 12.3269 31.5827 10.924 29.8583 10.924C28.1339 10.924 26.731 12.3269 26.731 14.0512C26.731 15.7756 28.1339 17.1785 29.8583 17.1785C31.5827 17.1785 32.9856 15.7756 32.9856 14.0512ZM28.2946 14.0512C28.2946 13.1891 28.9961 12.4876 29.8583 12.4876C30.7205 12.4876 31.422 13.1891 31.422 14.0512C31.422 14.9134 30.7205 15.6149 29.8583 15.6149C28.9961 15.6149 28.2946 14.9134 28.2946 14.0512ZM14.2352 25.1252C14.2352 29.8457 18.0756 33.6861 22.7962 33.6861C27.5167 33.6861 31.3571 29.8457 31.3571 25.1252C31.3571 24.6934 31.007 24.3434 30.5753 24.3434H15.017C14.5853 24.3433 14.2352 24.6934 14.2352 25.1252ZM29.7502 25.907C29.3602 29.3987 26.3903 32.1224 22.7962 32.1224C19.2021 32.1224 16.2322 29.3987 15.8422 25.907H29.7502Z" fill="black"/>
<path d="M23.7831 1.31773C23.7831 1.52508 23.8655 1.72393 24.0121 1.87055C24.1587 2.01716 24.3576 2.09953 24.5649 2.09953C24.7723 2.09953 24.9711 2.01716 25.1178 1.87055C25.2644 1.72393 25.3467 1.52508 25.3467 1.31773C25.3467 1.11039 25.2644 0.911533 25.1178 0.764917C24.9711 0.618302 24.7723 0.535934 24.5649 0.535934C24.3576 0.535934 24.1587 0.618302 24.0121 0.764917C23.8655 0.911533 23.7831 1.11039 23.7831 1.31773Z" fill="black"/>
</svg>
