<svg width="40" height="40" viewBox="0 0 40 40" fill="none" xmlns="http://www.w3.org/2000/svg">
<path d="M0.699158 20.8309C0.69905 23.0878 1.14348 25.3226 2.00708 27.4078C2.87068 29.4929 4.13653 31.3875 5.73235 32.9834C7.32817 34.5793 9.22271 35.8452 11.3078 36.7089C13.3929 37.5726 15.6277 38.0171 17.8845 38.0171C20.1414 38.0171 22.3762 37.5726 24.4613 36.7089C26.5464 35.8452 28.4409 34.5793 30.0367 32.9834C31.6325 31.3875 32.8984 29.4929 33.762 27.4078C34.6256 25.3226 35.07 23.0878 35.0699 20.8309C35.07 18.5741 34.6256 16.3393 33.762 14.2541C32.8984 12.169 31.6325 10.2744 30.0367 8.67852C28.4409 7.08262 26.5464 5.81668 24.4613 4.95298C22.3762 4.08929 20.1414 3.64474 17.8845 3.64474C15.6277 3.64474 13.3929 4.08929 11.3078 4.95298C9.22271 5.81668 7.32817 7.08262 5.73235 8.67852C4.13653 10.2744 2.87068 12.169 2.00708 14.2541C1.14348 16.3393 0.69905 18.5741 0.699158 20.8309Z" fill="#FDDF6D"/>
<path d="M21.5671 35.4794C12.0759 35.4794 4.38183 27.7853 4.38183 18.2941C4.38183 13.2233 6.57848 8.66621 10.0715 5.52057C4.50792 8.36527 0.699158 14.1534 0.699158 20.8311C0.699158 30.3223 8.39325 38.0164 17.8845 38.0164C22.3049 38.0164 26.335 36.3469 29.38 33.6047C27.0359 34.8033 24.3805 35.4794 21.5671 35.4794Z" fill="#FCC56B"/>
<path d="M10.4992 21.0775C9.22292 21.0775 8.18823 22.1121 8.18823 23.3884H12.81C12.81 22.1121 11.7754 21.0775 10.4992 21.0775ZM30.656 21.0775C29.3797 21.0775 28.345 22.1121 28.345 23.3884H32.9668C32.9668 22.1121 31.9322 21.0775 30.656 21.0775Z" fill="#F9A880"/>
<path d="M15.2006 2.03329C13.0478 2.34681 11.4701 3.98259 11.0913 5.95119C11.0751 6.03655 11.0343 6.11533 10.974 6.17787C10.9137 6.24041 10.8365 6.28401 10.7518 6.3033C10.667 6.32236 10.5785 6.3163 10.4972 6.28585C10.4158 6.25541 10.3451 6.20191 10.2937 6.1319C9.10456 4.51994 6.97854 3.72345 4.90228 4.36533C2.60719 5.07486 1.15617 7.40081 1.5257 9.77457C1.75195 11.2282 2.58313 12.4143 3.70954 13.1404H3.70946L11.6782 18.6548C12.8713 19.4804 14.5156 19.1073 15.2354 17.8476L19.9505 9.59652C20.7387 8.42183 21.0196 6.91065 20.5619 5.42369C19.8595 3.14251 17.5624 1.6893 15.2006 2.03329ZM36.406 6.28268C34.7447 5.86104 33.1029 6.57526 32.233 7.89354C32.1955 7.95076 32.142 7.99578 32.0793 8.0231C32.0165 8.05042 31.9472 8.05886 31.8797 8.04737C31.8123 8.03567 31.7497 8.00456 31.6997 7.95783C31.6497 7.91111 31.6144 7.85081 31.5981 7.78433C31.2193 6.25244 29.9125 5.03111 28.2078 4.87158C26.3235 4.69525 24.5655 5.95002 24.118 7.78886C23.8439 8.91488 24.0908 10.0289 24.6914 10.8973H24.6913L28.826 17.3155C29.4451 18.2764 30.7543 18.5012 31.6583 17.8017L37.58 13.2203C38.508 12.6033 39.1687 11.5884 39.2843 10.3681C39.4616 8.49605 38.2285 6.74526 36.406 6.28268Z" fill="#FD4DD7"/>
<path d="M15.3 16.8525L7.33119 11.3381H7.33127C6.20486 10.612 5.37361 9.42597 5.14744 7.9723C4.9297 6.57338 5.34463 5.1915 6.19158 4.14681C5.75404 4.16222 5.32048 4.23567 4.90228 4.36525C2.60719 5.07478 1.15617 7.40073 1.5257 9.77449C1.75195 11.2281 2.58313 12.4142 3.70954 13.1403H3.70946L11.6782 18.6547C12.8713 19.4803 14.5156 19.1073 15.2354 17.8475L15.6804 17.0686C15.5476 17.0078 15.4203 16.9355 15.3 16.8525ZM32.4478 15.5133L28.3131 9.09511H28.3132C27.7125 8.22667 27.4656 7.11276 27.7397 5.98666C27.8356 5.59225 27.9943 5.2158 28.2097 4.87174C28.2091 4.87165 28.2085 4.87159 28.2078 4.87158C26.3235 4.69525 24.5655 5.95002 24.118 7.78886C23.8439 8.91503 24.0908 10.0289 24.6914 10.8973H24.6913L28.826 17.3155C29.4451 18.2764 30.7543 18.5012 31.6583 17.8017L33.5562 16.3334C33.0988 16.205 32.7043 15.9132 32.4478 15.5133Z" fill="#E54190"/>
<path d="M21.825 32.4636C17.9832 32.4636 14.8687 29.3491 14.8687 25.5073H28.7813C28.7813 29.3492 25.6669 32.4636 21.825 32.4636Z" fill="#7F184C"/>
<path d="M16.566 25.5073V26.5931C16.566 27.051 16.9372 27.4221 17.395 27.4221H26.2549C26.7128 27.4221 27.0839 27.051 27.0839 26.5931V25.5073H16.566Z" fill="#F2F2F2"/>
<path d="M21.9711 29.5776C20.0907 28.704 18.0041 28.831 16.312 29.737C17.5835 31.3942 19.583 32.4636 21.8331 32.4636C22.7927 32.4644 23.7419 32.2659 24.6208 31.8807C23.9945 30.9118 23.0965 30.1006 21.9711 29.5776Z" fill="#FC4C59"/>
<path d="M3.32077 13.7215L11.2804 19.2296C11.8121 19.5968 12.443 19.7934 13.0892 19.7932C13.3229 19.7932 13.5578 19.7674 13.7889 19.7149C14.2177 19.6171 14.6215 19.4315 14.975 19.1698C15.3284 18.9081 15.6237 18.576 15.8423 18.1944L20.5454 9.96449C21.4776 8.56136 21.7272 6.83299 21.23 5.21799C20.4289 2.61587 17.7936 0.949455 15.0998 1.34157C12.915 1.65969 11.135 3.22704 10.527 5.31182C9.08204 3.69392 6.80265 3.04595 4.69577 3.69728C2.07217 4.50837 0.412238 7.16721 0.834818 9.88199C1.08029 11.4584 1.98615 12.8571 3.32077 13.7215ZM5.10882 5.03322C5.51146 4.9086 5.93054 4.84521 6.35203 4.84517C7.6625 4.84517 8.9279 5.45799 9.73118 6.5469C9.86327 6.72619 10.0447 6.86312 10.2534 6.94094C10.4621 7.01876 10.6889 7.03411 10.9061 6.9851C11.1233 6.93577 11.3214 6.82419 11.4763 6.66403C11.6311 6.50387 11.7358 6.30207 11.7778 6.0833C12.1147 4.33244 13.5309 2.9829 15.3014 2.72509C17.3186 2.43157 19.2936 3.6797 19.8937 5.62924C20.2689 6.84768 20.0781 8.15167 19.3701 9.20675C19.3607 9.22062 19.3519 9.23485 19.3436 9.24941L14.6285 17.5005C14.3786 17.9376 13.9707 18.2398 13.4796 18.3512C12.9884 18.4626 12.4902 18.3661 12.0761 18.0796L4.10757 12.5654C4.10132 12.5611 4.09491 12.5568 4.08858 12.5526C3.08358 11.905 2.40131 10.8532 2.2167 9.66699C1.89982 7.63292 3.14334 5.6408 5.10882 5.03322Z" fill="black"/>
<path d="M36.5779 5.6051C34.9191 5.184 33.1833 5.72877 32.0648 6.97112C31.4265 5.42814 29.9747 4.3347 28.2728 4.17548C26.0459 3.96681 23.9677 5.44939 23.4385 7.62354C23.1315 8.88495 23.3761 10.2188 24.1094 11.2853L28.2382 17.694C28.4373 18.0024 28.6982 18.2661 29.0043 18.4685C29.3105 18.6709 29.6552 18.8077 30.0169 18.8702C30.1651 18.8957 30.3142 18.9082 30.4628 18.9082C31.0502 18.9082 31.621 18.7135 32.086 18.3547L33.9091 16.9442C34.2162 18.2171 34.371 19.5219 34.3704 20.8312C34.3704 29.9218 26.9748 37.3174 17.8843 37.3174C8.79379 37.3174 1.39821 29.9216 1.39821 20.8311C1.39821 20.1841 1.43602 19.5326 1.51063 18.8945C1.5213 18.8033 1.51389 18.7109 1.48885 18.6226C1.4638 18.5343 1.42161 18.4518 1.36466 18.3797C1.30772 18.3077 1.23715 18.2476 1.15698 18.2029C1.07681 18.1581 0.988615 18.1296 0.897425 18.119C0.514299 18.074 0.166719 18.3486 0.121875 18.7322C0.0406847 19.4289 -8.84109e-06 20.1297 1.44077e-09 20.8311C1.44077e-09 30.6926 8.02285 38.7155 17.8843 38.7155C27.7458 38.7155 35.7687 30.6926 35.7687 20.8311C35.7687 19.1938 35.5473 17.5757 35.1114 16.0139L37.9885 13.7879C39.125 13.0231 39.8505 11.8022 39.9801 10.4339C40.1895 8.22651 38.7268 6.15049 36.5779 5.6051ZM38.5882 10.3021C38.4977 11.2574 37.9891 12.1087 37.193 12.638C37.179 12.6473 37.1654 12.657 37.1521 12.6673L31.2305 17.2486C30.9498 17.4657 30.6027 17.5519 30.2536 17.4921C29.9041 17.4321 29.6057 17.2348 29.4136 16.9367L25.2791 10.5186C25.275 10.5121 25.2707 10.5057 25.2664 10.4994C24.7471 9.74855 24.5805 8.84464 24.7972 7.95401C25.1405 6.54362 26.4253 5.55385 27.8539 5.55385C27.9494 5.55385 28.046 5.55822 28.1426 5.56736C29.4818 5.69275 30.5976 6.65104 30.9193 7.9519C30.9683 8.15027 31.074 8.33007 31.2235 8.46934C31.373 8.60862 31.5598 8.70132 31.7611 8.73612C31.9625 8.77058 32.1695 8.74563 32.357 8.66433C32.5444 8.58302 32.704 8.44889 32.8165 8.27831C33.5554 7.15862 34.9285 6.62885 36.234 6.96002C37.7209 7.33768 38.733 8.77441 38.5882 10.3021Z" fill="black"/>
<path d="M14.1697 25.5073C14.1697 29.7285 17.6038 33.1627 21.8251 33.1627C26.0464 33.1627 29.4806 29.7286 29.4806 25.5073C29.4806 25.4155 29.4625 25.3246 29.4274 25.2397C29.3923 25.1549 29.3408 25.0778 29.2758 25.0129C29.2109 24.948 29.1338 24.8965 29.049 24.8613C28.9642 24.8262 28.8733 24.8081 28.7815 24.8081H14.8687C14.6833 24.8082 14.5055 24.8818 14.3744 25.0129C14.2433 25.1441 14.1697 25.3219 14.1697 25.5073ZM28.0435 26.2064C27.6949 29.3289 25.039 31.7644 21.825 31.7644C18.611 31.7644 15.9553 29.3289 15.6066 26.2064H28.0435Z" fill="black"/>
<path d="M22.1044 4.34494C22.1044 4.53037 22.178 4.7082 22.3091 4.83931C22.4403 4.97042 22.6181 5.04408 22.8035 5.04408C22.9889 5.04408 23.1668 4.97042 23.2979 4.83931C23.429 4.7082 23.5027 4.53037 23.5027 4.34494C23.5027 4.15952 23.429 3.98169 23.2979 3.85057C23.1668 3.71946 22.9889 3.6458 22.8035 3.6458C22.6181 3.6458 22.4403 3.71946 22.3091 3.85057C22.178 3.98169 22.1044 4.15952 22.1044 4.34494Z" fill="black"/>
<path d="M0.581238 16.4833C0.581238 16.6688 0.654897 16.8466 0.786012 16.9777C0.917127 17.1088 1.09496 17.1825 1.28038 17.1825C1.46581 17.1825 1.64364 17.1088 1.77475 16.9777C1.90586 16.8466 1.97952 16.6688 1.97952 16.4833C1.97952 16.2979 1.90586 16.1201 1.77475 15.989C1.64364 15.8579 1.46581 15.7842 1.28038 15.7842C1.09496 15.7842 0.917127 15.8579 0.786012 15.989C0.654897 16.1201 0.581238 16.2979 0.581238 16.4833Z" fill="black"/>
</svg>
