<svg width="40" height="40" viewBox="0 0 40 40" fill="none" xmlns="http://www.w3.org/2000/svg">
<path d="M1.0752 21.3484C1.0752 26.1018 2.96346 30.6605 6.3246 34.0216C9.68573 37.3827 14.2444 39.271 18.9978 39.271C23.7511 39.271 28.3098 37.3827 31.671 34.0216C35.0321 30.6605 36.9204 26.1018 36.9204 21.3484C36.9204 16.5951 35.0321 12.0364 31.671 8.67526C28.3098 5.31412 23.7511 3.42586 18.9978 3.42586C14.2444 3.42586 9.68573 5.31412 6.3246 8.67526C2.96346 12.0364 1.0752 16.5951 1.0752 21.3484Z" fill="#FDDF6D"/>
<path d="M22.8382 36.6251C12.9398 36.6251 4.91565 28.6009 4.91565 18.7026C4.91565 13.4143 7.20651 8.66156 10.8495 5.38109C5.04714 8.34781 1.07495 14.3841 1.07495 21.3484C1.07495 31.2467 9.09909 39.2709 18.9975 39.2709C23.6075 39.2709 27.8105 37.5298 30.9861 34.6699C28.5416 35.9198 25.7723 36.6251 22.8382 36.6251Z" fill="#FCC56B"/>
<path d="M12.9824 1.425L15.1648 5.84695C15.2543 6.02844 15.3867 6.18542 15.5504 6.30438C15.7142 6.42333 15.9044 6.50068 16.1046 6.52977L20.9846 7.23883C22.0085 7.38758 22.4172 8.64586 21.6764 9.36805L18.1452 12.8101C18.0003 12.9514 17.8919 13.1257 17.8294 13.3182C17.7668 13.5107 17.752 13.7155 17.7862 13.9149L18.6198 18.7751C18.7947 19.7948 17.7243 20.5724 16.8085 20.091L12.4438 17.7963C12.2647 17.7021 12.0653 17.6529 11.8629 17.6529C11.6605 17.6529 11.4612 17.7021 11.2821 17.7963L6.91729 20.091C6.00151 20.5724 4.9312 19.7948 5.10604 18.7751L5.93964 13.9149C5.97383 13.7155 5.95902 13.5107 5.89648 13.3182C5.83395 13.1257 5.72556 12.9514 5.58065 12.8101L2.04948 9.36805C1.30862 8.64586 1.71737 7.38766 2.74128 7.23883L7.6212 6.52977C7.82147 6.50066 8.01166 6.4233 8.17539 6.30435C8.33912 6.1854 8.47147 6.02843 8.56104 5.84695L10.7435 1.425C11.2014 0.497188 12.5245 0.497188 12.9824 1.425ZM33.0427 7.34086L34.4577 10.2078C34.5158 10.3255 34.6016 10.4273 34.7077 10.5044C34.8139 10.5815 34.9372 10.6317 35.0671 10.6505L38.231 11.1103C38.8947 11.2067 39.1599 12.0226 38.6795 12.4908L36.39 14.7223C36.2961 14.814 36.2258 14.927 36.1853 15.0518C36.1447 15.1766 36.1351 15.3094 36.1573 15.4388L36.6977 18.5898C36.811 19.2509 36.1171 19.7551 35.5234 19.4429L32.6935 17.9551C32.5774 17.894 32.4482 17.8621 32.3169 17.8621C32.1857 17.8621 32.0565 17.894 31.9403 17.9551L29.1105 19.4429C28.5168 19.7551 27.8228 19.2509 27.9362 18.5898L28.4766 15.4388C28.4988 15.3094 28.4892 15.1766 28.4486 15.0518C28.4081 14.927 28.3378 14.814 28.2439 14.7223L25.9544 12.4908C25.4741 12.0226 25.7392 11.2068 26.4029 11.1103L29.5668 10.6505C29.6967 10.6317 29.82 10.5815 29.9262 10.5044C30.0323 10.4273 30.1181 10.3255 30.1762 10.2078L31.5912 7.34086C31.8881 6.73922 32.7459 6.73922 33.0427 7.34086Z" fill="#FFFF00"/>
<path d="M12.3207 6.77898L13.2131 8.58726C13.2497 8.66149 13.3038 8.7257 13.3708 8.77434C13.4378 8.82298 13.5156 8.85461 13.5975 8.86648L15.593 9.15648C16.0117 9.21734 16.179 9.7318 15.8759 10.0271L14.4319 11.4347C14.3726 11.4925 14.3282 11.5638 14.3027 11.6425C14.2771 11.7212 14.271 11.805 14.2851 11.8866L14.6259 13.8741C14.6975 14.291 14.2597 14.609 13.8852 14.4122L12.1004 13.4738C11.9516 13.3957 11.774 13.3957 11.6253 13.4738L9.84045 14.4122C9.46599 14.6091 9.02834 14.2911 9.09974 13.8741L9.4406 11.8866C9.45456 11.805 9.4485 11.7212 9.42293 11.6425C9.39735 11.5638 9.35304 11.4925 9.29381 11.4347L7.84974 10.0271C7.54685 9.7318 7.71396 9.21734 8.13264 9.15648L10.1282 8.86648C10.2101 8.85456 10.2879 8.82292 10.3548 8.77428C10.4218 8.72564 10.4759 8.66146 10.5126 8.58726L11.405 6.77898C11.5924 6.39969 12.1334 6.39969 12.3207 6.77898ZM32.552 11.311L33.0104 12.2398C33.0292 12.278 33.057 12.3109 33.0914 12.3359C33.1258 12.3609 33.1657 12.3771 33.2078 12.3832L34.2327 12.5321C34.4478 12.5633 34.5336 12.8277 34.378 12.9793L33.6364 13.7024C33.6059 13.7321 33.5832 13.7687 33.57 13.8091C33.5569 13.8495 33.5537 13.8926 33.5609 13.9345L33.736 14.9553C33.7727 15.1695 33.5479 15.3328 33.3556 15.2317L32.4389 14.7497C32.4013 14.7299 32.3594 14.7196 32.3169 14.7196C32.2744 14.7196 32.2325 14.7299 32.1949 14.7497L31.2782 15.2317C31.0858 15.3328 30.861 15.1695 30.8978 14.9553L31.0729 13.9345C31.0801 13.8926 31.077 13.8495 31.0638 13.8091C31.0507 13.7687 31.0279 13.7321 30.9974 13.7024L30.2558 12.9795C30.1001 12.8278 30.1861 12.5634 30.4011 12.5323L31.426 12.3834C31.4681 12.3772 31.508 12.361 31.5424 12.336C31.5768 12.3111 31.6046 12.2781 31.6234 12.24L32.0818 11.3112C32.178 11.1162 32.4558 11.1162 32.552 11.311Z" fill="#FC4C59"/>
<path d="M22.6521 33.1837C18.6455 33.1837 15.3975 29.9356 15.3975 25.929H29.9068C29.9068 29.9356 26.6589 33.1837 22.6521 33.1837Z" fill="#7F184C"/>
<path d="M17.1676 25.929V27.0614C17.1676 27.5389 17.5547 27.9259 18.0321 27.9259H27.2721C27.7496 27.9259 28.1367 27.5388 28.1367 27.0614V25.929H17.1676Z" fill="#F2F2F2"/>
<path d="M22.8046 30.174C20.8436 29.2629 18.6674 29.3953 16.9027 30.3402C18.2287 32.0685 20.314 33.1838 22.6607 33.1838C23.6614 33.1846 24.6513 32.9776 25.5679 32.5759C24.9147 31.5653 23.9783 30.7192 22.8046 30.174Z" fill="#FC4C59"/>
<path d="M39.1883 13.0127C39.6107 12.601 39.76 11.9967 39.5777 11.4357C39.3954 10.8747 38.9194 10.4734 38.3357 10.3886L35.1718 9.92891C35.159 9.92702 35.1468 9.92205 35.1362 9.9144C35.1257 9.90675 35.1172 9.89666 35.1115 9.885L33.6965 7.01797C33.4354 6.48898 32.9068 6.16047 32.3171 6.16047C31.7272 6.16047 31.1985 6.48906 30.9375 7.01797L30.9372 7.01844C29.2957 5.6475 27.4514 4.57992 25.4416 3.84C25.0636 3.7007 24.6447 3.89445 24.5055 4.27234C24.3663 4.65023 24.56 5.0693 24.9379 5.20844C26.9004 5.93094 28.6918 6.9932 30.2713 8.36766L29.5225 9.88477C29.5168 9.89645 29.5083 9.90655 29.4978 9.9142C29.4873 9.92186 29.475 9.92682 29.4622 9.92867L26.2982 10.3884C25.7145 10.4733 25.2386 10.8745 25.0563 11.4355C24.874 11.9965 25.0232 12.6008 25.4457 13.0125L27.7351 15.2441C27.754 15.2625 27.7626 15.2891 27.7582 15.3151L27.2177 18.4661C27.1179 19.0474 27.3525 19.6241 27.8296 19.9708C28.0993 20.1668 28.4148 20.2663 28.7325 20.2663C28.9771 20.2663 29.2228 20.2074 29.4499 20.088L32.2797 18.6002C32.3031 18.5879 32.3309 18.588 32.3543 18.6002L35.1841 20.088C35.4816 20.2453 35.8226 20.3003 36.1544 20.2443C36.1778 20.6115 36.1909 20.9796 36.1909 21.3482C36.1909 30.8287 28.4779 38.5416 18.9975 38.5416C9.51715 38.5416 1.80411 30.8289 1.80411 21.3484C1.80411 18.2166 2.64411 15.1834 4.2402 12.5216L5.07168 13.3322C5.13197 13.3909 5.17706 13.4635 5.20307 13.5435C5.22908 13.6236 5.23523 13.7088 5.22098 13.7917L4.38739 18.6519C4.25926 19.3993 4.56059 20.1403 5.17403 20.5859C5.52059 20.8378 5.92606 20.9658 6.33442 20.9658C6.64872 20.9658 6.96458 20.8899 7.25653 20.7366L11.6213 18.4419C11.6958 18.4027 11.7787 18.3823 11.8629 18.3823C11.947 18.3823 12.0299 18.4027 12.1044 18.4419L16.4692 20.7366C17.1403 21.0894 17.9384 21.0317 18.5516 20.5861C19.165 20.1405 19.4664 19.3993 19.3382 18.652L18.5047 13.7919C18.4904 13.7089 18.4966 13.6237 18.5226 13.5436C18.5486 13.4636 18.5937 13.391 18.6539 13.3323L22.1852 9.89023C22.728 9.36102 22.9199 8.58438 22.6854 7.86328C22.4512 7.14227 21.8396 6.62641 21.0892 6.51742L16.2092 5.80836C16.1259 5.79623 16.0468 5.76405 15.9787 5.71458C15.9106 5.66511 15.8555 5.59984 15.8182 5.52437L15.3364 4.54797C16.5392 4.28713 17.7664 4.15545 18.9972 4.15516C19.1888 4.15235 19.3715 4.0743 19.506 3.93786C19.6404 3.80143 19.7158 3.61757 19.7158 3.42602C19.7158 3.23446 19.6404 3.0506 19.506 2.91417C19.3715 2.77773 19.1888 2.69968 18.9972 2.69688C17.5408 2.69664 16.0893 2.86625 14.6722 3.20227L13.6358 1.10234C13.3006 0.422422 12.6211 0 11.8629 0C11.1047 0 10.4252 0.422422 10.0897 1.10227L7.90723 5.5243C7.86999 5.59979 7.81494 5.66509 7.74683 5.71456C7.67872 5.76404 7.5996 5.7962 7.51629 5.80828L2.63637 6.5175C1.88606 6.62656 1.27442 7.14219 1.04012 7.86336C0.805825 8.58438 0.997544 9.36117 1.54051 9.89039L3.16942 11.4782C1.32059 14.436 0.345825 17.8353 0.345825 21.3484C0.345825 31.633 8.71286 40 18.9975 40C29.2821 40 37.6491 31.633 37.6491 21.3484C37.6491 20.0541 37.5147 18.762 37.2514 17.5055L36.8758 15.3154C36.8736 15.3026 36.8746 15.2894 36.8786 15.277C36.8826 15.2646 36.8896 15.2534 36.8989 15.2443L39.1883 13.0127ZM2.427 8.31383C2.45692 8.22148 2.55786 8.00234 2.84606 7.96047L7.72598 7.25141C8.04327 7.20539 8.34461 7.08287 8.60398 6.89441C8.86336 6.70596 9.073 6.45723 9.21481 6.16969L11.3972 1.74773C11.5261 1.48648 11.7657 1.45836 11.8628 1.45836C11.9599 1.45836 12.1994 1.48656 12.3283 1.74773L14.5107 6.16969C14.6526 6.4572 14.8622 6.70591 15.1216 6.89436C15.381 7.08281 15.6823 7.20534 15.9996 7.25141L20.8795 7.96047C21.1679 8.00234 21.2686 8.22156 21.2987 8.31383C21.3288 8.40609 21.3759 8.64273 21.1673 8.84601L17.6361 12.288C17.4066 12.5118 17.2349 12.7881 17.1358 13.093C17.0367 13.3979 17.0133 13.7223 17.0675 14.0383L17.9011 18.8984C17.9504 19.1855 17.773 19.3492 17.6945 19.4062C17.6161 19.4631 17.4056 19.5812 17.1478 19.4456L12.783 17.1509C12.4993 17.0017 12.1835 16.9237 11.8629 16.9237C11.5422 16.9237 11.2264 17.0017 10.9427 17.1509L6.57793 19.4456C6.3202 19.5812 6.10973 19.4631 6.03122 19.4061C5.9527 19.3491 5.77543 19.1854 5.82465 18.8984L6.65825 14.038C6.71248 13.7221 6.68905 13.3976 6.58998 13.0927C6.49091 12.7878 6.31918 12.5116 6.08957 12.2878L2.5584 8.84601C2.34981 8.64266 2.397 8.40609 2.427 8.31383ZM35.8811 14.2002C35.7025 14.3743 35.5689 14.5892 35.4918 14.8264C35.4147 15.0636 35.3965 15.316 35.4386 15.5619L35.7935 17.6308C35.7962 17.6583 35.8001 17.6859 35.8061 17.7135C35.81 17.732 35.8133 17.7505 35.8172 17.7691L35.9791 18.7129C35.9818 18.7288 35.9875 18.762 35.9472 18.7913C35.9071 18.8205 35.8769 18.8048 35.8628 18.7973L33.0329 17.3097C32.8122 17.1936 32.5665 17.1329 32.3171 17.1329C32.0677 17.1329 31.822 17.1936 31.6013 17.3097L28.7715 18.7975C28.7572 18.8051 28.7272 18.8206 28.687 18.7914C28.6468 18.7621 28.6525 18.7289 28.6551 18.713L29.1957 15.5617C29.2379 15.3159 29.2196 15.0635 29.1425 14.8263C29.0655 14.5891 28.9319 14.3742 28.7532 14.2002L26.4638 11.9685C26.4522 11.9573 26.428 11.9338 26.4435 11.8862C26.4589 11.8388 26.4922 11.834 26.5081 11.8316L29.672 11.3719C29.9188 11.336 30.1533 11.2407 30.3551 11.0941C30.5569 10.9475 30.72 10.754 30.8304 10.5303L31.8236 8.51797C31.8263 8.5125 31.8291 8.50711 31.8316 8.50164L32.2453 7.66344C32.2524 7.64898 32.2673 7.61875 32.3172 7.61875C32.3671 7.61875 32.382 7.64898 32.3891 7.66344L33.8041 10.5304C33.9145 10.754 34.0776 10.9475 34.2794 11.0941C34.4812 11.2407 34.7156 11.336 34.9625 11.3719L38.1264 11.8316C38.1424 11.834 38.1757 11.8388 38.1911 11.8862C38.2065 11.9337 38.1824 11.9571 38.1708 11.9685L35.8811 14.2002Z" fill="black"/>
<path d="M14.6685 25.929C14.6685 30.3312 18.2499 33.9128 22.6523 33.9128C27.0546 33.9128 30.6361 30.3313 30.6361 25.929C30.6361 25.7356 30.5593 25.5501 30.4226 25.4134C30.2858 25.2767 30.1004 25.1998 29.907 25.1998H15.3974C14.9949 25.1998 14.6685 25.5263 14.6685 25.929ZM29.1374 26.658C28.7738 29.9144 26.0041 32.4545 22.6522 32.4545C19.3003 32.4545 16.5306 29.9144 16.1671 26.658H29.1374Z" fill="black"/>
<path d="M21.781 3.79531C21.781 3.98869 21.8578 4.17415 21.9946 4.31089C22.1313 4.44763 22.3168 4.52445 22.5101 4.52445C22.7035 4.52445 22.889 4.44763 23.0257 4.31089C23.1625 4.17415 23.2393 3.98869 23.2393 3.79531C23.2393 3.60193 23.1625 3.41647 23.0257 3.27973C22.889 3.14299 22.7035 3.06617 22.5101 3.06617C22.3168 3.06617 22.1313 3.14299 21.9946 3.27973C21.8578 3.41647 21.781 3.60193 21.781 3.79531Z" fill="black"/>
</svg>
