<svg width="40" height="40" viewBox="0 0 40 40" fill="none" xmlns="http://www.w3.org/2000/svg">
<path d="M0.78186 20.0001C0.78186 25.0971 2.80663 29.9853 6.41075 33.5895C10.0149 37.1936 14.9031 39.2184 20.0001 39.2184C25.0971 39.2184 29.9853 37.1936 33.5894 33.5895C37.1936 29.9853 39.2183 25.0971 39.2183 20.0001C39.2183 14.9031 37.1936 10.0149 33.5894 6.41077C29.9853 2.80665 25.0971 0.781876 20.0001 0.781876C14.9031 0.781876 10.0149 2.80665 6.41075 6.41077C2.80663 10.0149 0.78186 14.9031 0.78186 20.0001Z" fill="#FDDF6D"/>
<path d="M24.1183 36.3811C13.5044 36.3811 4.90018 27.7768 4.90018 17.1629C4.90018 11.4923 7.35667 6.39603 11.263 2.87836C5.04112 6.05954 0.781738 12.5323 0.781738 20C0.781738 30.6139 9.38597 39.2181 19.9999 39.2181C24.9432 39.2181 29.4501 37.3512 32.8552 34.2846C30.2341 35.6249 27.2645 36.3811 24.1183 36.3811Z" fill="#FCC56B"/>
<path d="M34.3278 16.1421H27.9355C27.5036 16.1421 27.1537 15.7921 27.1537 15.3603C27.1537 14.9285 27.5036 14.5785 27.9355 14.5785H34.3278C34.7596 14.5785 35.1096 14.9286 35.1096 15.3603C35.1096 15.7921 34.7595 16.1421 34.3278 16.1421ZM19.6862 16.1421H13.2939C12.862 16.1421 12.5121 15.7921 12.5121 15.3603C12.5121 14.9285 12.862 14.5785 13.2939 14.5785H19.6862C20.118 14.5785 20.468 14.9286 20.468 15.3603C20.468 15.7921 20.1179 16.1421 19.6862 16.1421ZM31.1317 27.7479H17.0224C16.5905 27.7479 16.2406 27.3978 16.2406 26.9661C16.2406 26.5344 16.5905 26.1843 17.0224 26.1843H31.1316C31.5634 26.1843 31.9134 26.5344 31.9134 26.9661C31.9134 27.3978 31.5634 27.7479 31.1317 27.7479Z" fill="#7F184C"/>
<path d="M36.522 8.72627C34.3008 5.4772 31.2086 2.9736 27.5794 1.48641C27.1801 1.32266 26.7233 1.51383 26.5596 1.91336C26.3958 2.3129 26.587 2.76954 26.9865 2.93329C30.3321 4.30431 33.183 6.61267 35.2312 9.60869C37.3281 12.676 38.4364 16.2693 38.4364 20C38.4364 30.1658 30.1658 38.4363 20 38.4363C9.83424 38.4363 1.56367 30.1659 1.56367 20C1.56367 9.834 9.83416 1.56367 20 1.56367C20.4318 1.56367 20.7818 1.2136 20.7818 0.781877C20.7818 0.350157 20.4318 0 20 0C8.97189 0 0 8.97197 0 20C0 31.028 8.97189 39.9999 20 39.9999C31.028 39.9999 39.9999 31.028 39.9999 20C40.0001 15.9531 38.7974 12.0547 36.522 8.72627Z" fill="black"/>
<path d="M34.3278 16.1421C34.7596 16.1421 35.1096 15.7921 35.1096 15.3603C35.1096 14.9285 34.7596 14.5785 34.3278 14.5785H27.9355C27.5036 14.5785 27.1537 14.9286 27.1537 15.3603C27.1537 15.7921 27.5036 16.1421 27.9355 16.1421H34.3278ZM16.2406 26.9661C16.2406 27.3979 16.5905 27.7479 17.0224 27.7479H31.1316C31.5634 27.7479 31.9134 27.3979 31.9134 26.9661C31.9134 26.5344 31.5634 26.1844 31.1316 26.1844H17.0224C16.9197 26.1843 16.8181 26.2045 16.7232 26.2438C16.6283 26.2831 16.5421 26.3407 16.4695 26.4133C16.3969 26.4859 16.3394 26.5721 16.3001 26.6669C16.2608 26.7618 16.2406 26.8635 16.2406 26.9661ZM20.468 15.3603C20.468 14.9285 20.118 14.5785 19.6862 14.5785H13.2939C12.862 14.5785 12.5121 14.9286 12.5121 15.3603C12.5121 15.7921 12.862 16.1421 13.2939 16.1421H19.6862C20.1179 16.1421 20.468 15.7921 20.468 15.3603Z" fill="black"/>
<path d="M23.7518 1.38594C23.7518 1.59329 23.8342 1.79214 23.9808 1.93875C24.1274 2.08537 24.3263 2.16774 24.5336 2.16774C24.741 2.16774 24.9398 2.08537 25.0864 1.93875C25.2331 1.79214 25.3154 1.59329 25.3154 1.38594C25.3154 1.17859 25.2331 0.97974 25.0864 0.833125C24.9398 0.686509 24.741 0.604141 24.5336 0.604141C24.3263 0.604141 24.1274 0.686509 23.9808 0.833125C23.8342 0.97974 23.7518 1.17859 23.7518 1.38594Z" fill="black"/>
</svg>
