<svg width="40" height="40" viewBox="0 0 40 40" fill="none" xmlns="http://www.w3.org/2000/svg">
<path d="M0.781799 20.0001C0.781799 22.5239 1.27889 25.0229 2.2447 27.3546C3.21051 29.6863 4.62612 31.8049 6.4107 33.5895C8.19529 35.374 10.3139 36.7896 12.6456 37.7555C14.9772 38.7213 17.4763 39.2184 20.0001 39.2184C22.5239 39.2184 25.0229 38.7213 27.3546 37.7555C29.6863 36.7896 31.8049 35.374 33.5895 33.5895C35.374 31.8049 36.7896 29.6863 37.7555 27.3546C38.7213 25.0229 39.2184 22.5239 39.2184 20.0001C39.2184 17.4763 38.7213 14.9772 37.7555 12.6456C36.7896 10.3139 35.374 8.19528 33.5895 6.4107C31.8049 4.62612 29.6863 3.21051 27.3546 2.2447C25.0229 1.27889 22.5239 0.781796 20.0001 0.781796C17.4763 0.781796 14.9772 1.27889 12.6456 2.2447C10.3139 3.21051 8.19529 4.62612 6.4107 6.4107C4.62612 8.19528 3.21051 10.3139 2.2447 12.6456C1.27889 14.9772 0.781799 17.4763 0.781799 20.0001Z" fill="#FDDF6D"/>
<path d="M24.1184 36.381C13.5045 36.381 4.90016 27.7768 4.90016 17.1628C4.90016 11.4922 7.35664 6.39594 11.263 2.87828C5.04117 6.05953 0.781799 12.5323 0.781799 20C0.781799 30.6139 9.38602 39.2182 20 39.2182C24.9433 39.2182 29.4502 37.3512 32.8554 34.2847C30.2341 35.6249 27.2646 36.381 24.1184 36.381Z" fill="#FCC56B"/>
<path d="M29.4842 16.2276C29.4842 17.6695 30.6531 18.8383 32.0949 18.8383C33.5368 18.8383 34.7056 17.6694 34.7056 16.2276H29.4842ZM16.1306 16.2276C16.1306 17.6695 17.2995 18.8383 18.7413 18.8383C20.1831 18.8383 21.352 17.6694 21.352 16.2276H16.1306Z" fill="white"/>
<path d="M11.7413 21.5225C10.3141 21.5225 9.15704 22.6795 9.15704 24.1068H14.3256C14.3254 22.6795 13.1684 21.5225 11.7413 21.5225ZM34.2824 21.1763C32.8552 21.1763 31.6981 22.3333 31.6981 23.7605H36.8667C36.8667 22.3333 35.7095 21.1763 34.2824 21.1763Z" fill="#F9A880"/>
<path d="M24.4394 29.7632H18.0715C17.6397 29.7632 17.2897 29.4131 17.2897 28.9814C17.2897 28.5496 17.6398 28.1996 18.0715 28.1996H24.4394C26.5438 28.1996 28.5223 27.3802 30.0105 25.8921C30.3158 25.5868 30.8108 25.5868 31.1161 25.8921C31.4214 26.1974 31.4214 26.6925 31.1161 26.9977C29.3326 28.781 26.9615 29.7632 24.4394 29.7632Z" fill="black"/>
<path d="M36.3974 8.54609C34.0941 5.25461 30.902 2.75664 27.1664 1.32242C26.7635 1.16766 26.3111 1.36891 26.1564 1.77203C26.0016 2.17516 26.2029 2.62734 26.606 2.78203C30.0496 4.10414 32.9923 6.40727 35.1163 9.44242C37.2884 12.5463 38.4364 16.197 38.4364 19.9998C38.4364 30.1657 30.1659 38.4361 20.0001 38.4361C9.83422 38.4361 1.56367 30.1658 1.56367 20C1.56367 9.83422 9.83406 1.56367 20 1.56367C20.4318 1.56367 20.7818 1.21359 20.7818 0.781875C20.7818 0.350156 20.4318 0 20 0C8.97187 0 0 8.97187 0 20C0 31.0281 8.97187 40 20 40C31.0281 40 40 31.0281 40 20C40 15.8749 38.7543 11.9141 36.3974 8.54609Z" fill="black"/>
<path d="M28.7932 17.0094C29.1472 18.5043 30.4932 19.6201 32.0948 19.6201C33.9654 19.6201 35.4873 18.0982 35.4873 16.2276C35.4873 15.7958 35.1372 15.4458 34.7055 15.4458H27.0884C26.6566 15.4458 26.3066 15.7959 26.3066 16.2276C26.3066 16.6594 26.6567 17.0094 27.0884 17.0094H28.7932ZM33.7481 17.0094C33.4544 17.6277 32.8238 18.0564 32.0949 18.0564C31.3661 18.0564 30.7354 17.6277 30.4417 17.0094H33.7481ZM13.3284 16.2276C13.3284 16.6594 13.6785 17.0094 14.1102 17.0094H15.4396C15.7936 18.5043 17.1396 19.6201 18.7412 19.6201C20.6118 19.6201 22.1337 18.0982 22.1337 16.2276C22.1337 15.7958 21.7836 15.4458 21.3519 15.4458H14.1102C13.6785 15.4457 13.3284 15.7958 13.3284 16.2276ZM20.3944 17.0094C20.1008 17.6277 19.4701 18.0564 18.7412 18.0564C18.0123 18.0564 17.3817 17.6277 17.088 17.0094H20.3944ZM18.0715 28.1995C17.6397 28.1995 17.2897 28.5496 17.2897 28.9813C17.2897 29.4131 17.6398 29.7631 18.0715 29.7631H24.4394C26.9616 29.7631 29.3326 28.7809 31.116 26.9976C31.4213 26.6923 31.4213 26.1972 31.116 25.892C30.8107 25.5866 30.3156 25.5866 30.0104 25.892C28.5223 27.38 26.5437 28.1996 24.4393 28.1996H18.0714V28.1995H18.0715Z" fill="black"/>
<path d="M23.6852 1.38656C23.6852 1.48923 23.7054 1.59089 23.7447 1.68574C23.784 1.7806 23.8416 1.86678 23.9142 1.93938C23.9868 2.01197 24.0729 2.06956 24.1678 2.10885C24.2626 2.14814 24.3643 2.16836 24.467 2.16836C24.5696 2.16836 24.6713 2.14814 24.7662 2.10885C24.861 2.06956 24.9472 2.01197 25.0198 1.93938C25.0924 1.86678 25.15 1.7806 25.1893 1.68574C25.2286 1.59089 25.2488 1.48923 25.2488 1.38656C25.2488 1.2839 25.2286 1.18224 25.1893 1.08738C25.15 0.992531 25.0924 0.906346 25.0198 0.83375C24.9472 0.761153 24.861 0.703567 24.7662 0.664278C24.6713 0.624989 24.5696 0.604767 24.467 0.604767C24.3643 0.604767 24.2626 0.624989 24.1678 0.664278C24.0729 0.703567 23.9868 0.761153 23.9142 0.83375C23.8416 0.906346 23.784 0.992531 23.7447 1.08738C23.7054 1.18224 23.6852 1.2839 23.6852 1.38656Z" fill="black"/>
</svg>
