<svg width="40" height="40" viewBox="0 0 40 40" fill="none" xmlns="http://www.w3.org/2000/svg">
<path d="M0.781799 20.0001C0.781799 22.5239 1.27889 25.0229 2.2447 27.3546C3.21051 29.6863 4.62612 31.8049 6.4107 33.5895C8.19529 35.374 10.3139 36.7896 12.6456 37.7555C14.9772 38.7213 17.4763 39.2184 20.0001 39.2184C22.5239 39.2184 25.0229 38.7213 27.3546 37.7555C29.6863 36.7896 31.8049 35.374 33.5895 33.5895C35.374 31.8049 36.7896 29.6863 37.7555 27.3546C38.7213 25.0229 39.2184 22.5239 39.2184 20.0001C39.2184 17.4763 38.7213 14.9772 37.7555 12.6456C36.7896 10.3139 35.374 8.19529 33.5895 6.4107C31.8049 4.62612 29.6863 3.21051 27.3546 2.2447C25.0229 1.27889 22.5239 0.781799 20.0001 0.781799C17.4763 0.781799 14.9772 1.27889 12.6456 2.2447C10.3139 3.21051 8.19529 4.62612 6.4107 6.4107C4.62612 8.19529 3.21051 10.3139 2.2447 12.6456C1.27889 14.9772 0.781799 17.4763 0.781799 20.0001Z" fill="#FDDF6D"/>
<path d="M24.1184 36.3811C13.5045 36.3811 4.90016 27.7769 4.90016 17.1629C4.90016 11.4923 7.35664 6.39601 11.263 2.87836C5.04117 6.05953 0.781799 12.5323 0.781799 20C0.781799 30.6139 9.38602 39.2182 20 39.2182C24.9433 39.2182 29.4502 37.3512 32.8554 34.2847C30.2341 35.6249 27.2646 36.3811 24.1184 36.3811Z" fill="#FCC56B"/>
<path d="M11.0779 14.0509C11.0779 14.783 11.2221 15.508 11.5023 16.1844C11.7825 16.8607 12.1931 17.4753 12.7108 17.993C13.2285 18.5107 13.8431 18.9213 14.5194 19.2015C15.1958 19.4817 15.9208 19.6259 16.6529 19.6259C17.385 19.6259 18.1099 19.4817 18.7863 19.2015C19.4627 18.9213 20.0773 18.5107 20.5949 17.993C21.1126 17.4753 21.5233 16.8607 21.8034 16.1844C22.0836 15.508 22.2278 14.783 22.2278 14.0509C22.2278 13.3188 22.0836 12.5939 21.8034 11.9175C21.5233 11.2411 21.1126 10.6265 20.5949 10.1089C20.0773 9.59119 19.4627 9.18055 18.7863 8.90038C18.1099 8.62021 17.385 8.47601 16.6529 8.47601C15.9208 8.47601 15.1958 8.62021 14.5194 8.90038C13.8431 9.18055 13.2285 9.59119 12.7108 10.1089C12.1931 10.6265 11.7825 11.2411 11.5023 11.9175C11.2221 12.5939 11.0779 13.3188 11.0779 14.0509Z" fill="white"/>
<path d="M26.7123 14.0509C26.7123 14.783 26.8565 15.508 27.1367 16.1844C27.4169 16.8607 27.8275 17.4753 28.3452 17.993C28.8629 18.5107 29.4775 18.9213 30.1538 19.2015C30.8302 19.4817 31.5552 19.6259 32.2873 19.6259C33.0194 19.6259 33.7443 19.4817 34.4207 19.2015C35.0971 18.9213 35.7116 18.5107 36.2293 17.993C36.747 17.4753 37.1577 16.8607 37.4378 16.1844C37.718 15.508 37.8622 14.783 37.8622 14.0509C37.8622 13.3188 37.718 12.5939 37.4378 11.9175C37.1577 11.2411 36.747 10.6265 36.2293 10.1089C35.7116 9.59119 35.0971 9.18055 34.4207 8.90038C33.7443 8.62021 33.0194 8.47601 32.2873 8.47601C31.5552 8.47601 30.8302 8.62021 30.1538 8.90038C29.4775 9.18055 28.8629 9.59119 28.3452 10.1089C27.8275 10.6265 27.4169 11.2411 27.1367 11.9175C26.8565 12.5939 26.7123 13.3188 26.7123 14.0509Z" fill="white"/>
<path d="M11.7413 21.7408C10.3141 21.7408 9.15704 22.8978 9.15704 24.325H14.3256C14.3254 22.8977 13.1684 21.7408 11.7413 21.7408ZM34.2824 21.7408C32.8552 21.7408 31.6981 22.8978 31.6981 24.325H36.8667C36.8667 22.8977 35.7095 21.7408 34.2824 21.7408Z" fill="#F9A880"/>
<path d="M28.0348 27.748H19.7115C19.2797 27.748 18.9297 27.398 18.9297 26.9662C18.9297 26.5343 19.2798 26.1844 19.7115 26.1844H28.0348C28.4666 26.1844 28.8166 26.5343 28.8166 26.9662C28.8167 27.398 28.4666 27.748 28.0348 27.748Z" fill="black"/>
<path d="M16.0273 14.0509C16.0273 14.4656 16.1921 14.8634 16.4853 15.1566C16.7786 15.4499 17.1763 15.6146 17.591 15.6146C18.0057 15.6146 18.4035 15.4499 18.6967 15.1566C18.9899 14.8634 19.1547 14.4656 19.1547 14.0509C19.1547 13.6362 18.9899 13.2385 18.6967 12.9453C18.4035 12.652 18.0057 12.4873 17.591 12.4873C17.1763 12.4873 16.7786 12.652 16.4853 12.9453C16.1921 13.2385 16.0273 13.6362 16.0273 14.0509Z" fill="#7F184C"/>
<path d="M31.8921 14.0509C31.8921 14.4656 32.0568 14.8634 32.3501 15.1566C32.6433 15.4499 33.0411 15.6146 33.4558 15.6146C33.8705 15.6146 34.2682 15.4499 34.5614 15.1566C34.8547 14.8634 35.0194 14.4656 35.0194 14.0509C35.0194 13.6362 34.8547 13.2385 34.5614 12.9453C34.2682 12.652 33.8705 12.4873 33.4558 12.4873C33.0411 12.4873 32.6433 12.652 32.3501 12.9453C32.0568 13.2385 31.8921 13.6362 31.8921 14.0509Z" fill="#7F184C"/>
<path d="M38.1366 11.5636C37.1665 9.29133 34.91 7.69438 32.2873 7.69438C28.7821 7.69438 25.9305 10.5459 25.9305 14.0511C25.9305 17.5562 28.7821 20.4078 32.2873 20.4078C34.8956 20.4078 37.141 18.8281 38.1199 16.5757C38.3311 17.7048 38.4371 18.8511 38.4365 19.9998C38.4365 30.1657 30.166 38.436 20.0002 38.436C9.8343 38.436 1.56367 30.1659 1.56367 20C1.56367 9.83406 9.83406 1.56367 20 1.56367C23.3577 1.56367 26.6439 2.47477 29.5035 4.19852C29.8734 4.42156 30.3538 4.30234 30.5767 3.93258C30.7996 3.56273 30.6805 3.08227 30.3108 2.85938C27.2076 0.98875 23.6422 0 20 0C8.97187 0 0 8.97187 0 20C0 31.028 8.97187 40 20 40C31.0281 40 40 31.0281 40 20.0001C40 17.049 39.372 14.2128 38.1366 11.5636ZM37.0802 14.0513C37.0802 16.6942 34.9301 18.8444 32.2871 18.8444C29.6441 18.8444 27.494 16.6941 27.494 14.0513C27.494 11.4084 29.6441 9.25813 32.2871 9.25813C34.1629 9.25813 35.7895 10.3419 36.5763 11.9155C36.5816 11.928 36.5863 11.9408 36.5923 11.9532C36.632 12.0349 36.6694 12.1175 36.7078 12.1996C36.9543 12.7858 37.0809 13.4154 37.0802 14.0513Z" fill="black"/>
<path d="M16.6533 7.69453C13.1482 7.69453 10.2966 10.5461 10.2966 14.0513C10.2966 17.5564 13.1482 20.408 16.6533 20.408C20.1585 20.408 23.0101 17.5564 23.0101 14.0513C23.0101 10.5461 20.1584 7.69453 16.6533 7.69453ZM16.6533 18.8444C14.0104 18.8444 11.8602 16.6941 11.8602 14.0513C11.8602 11.4084 14.0104 9.25813 16.6533 9.25813C19.2963 9.25813 21.4465 11.4084 21.4465 14.0513C21.4465 16.6941 19.2962 18.8444 16.6533 18.8444ZM18.9298 26.966C18.9298 27.3979 19.2798 27.7478 19.7116 27.7478H28.0348C28.4666 27.7478 28.8166 27.3979 28.8166 26.966C28.8166 26.5341 28.4666 26.1842 28.0348 26.1842H19.7116C19.2798 26.1842 18.9298 26.5341 18.9298 26.966Z" fill="black"/>
<path d="M31.5055 5.17742C31.5055 5.38476 31.5879 5.58362 31.7345 5.73023C31.8811 5.87685 32.0799 5.95922 32.2873 5.95922C32.4946 5.95922 32.6935 5.87685 32.8401 5.73023C32.9867 5.58362 33.0691 5.38476 33.0691 5.17742C33.0691 4.97007 32.9867 4.77122 32.8401 4.62461C32.6935 4.47799 32.4946 4.39562 32.2873 4.39562C32.0799 4.39562 31.8811 4.47799 31.7345 4.62461C31.5879 4.77122 31.5055 4.97007 31.5055 5.17742Z" fill="black"/>
</svg>
