<svg width="40" height="40" viewBox="0 0 40 40" fill="none" xmlns="http://www.w3.org/2000/svg">
<path d="M0.781799 20.0001C0.781799 22.5239 1.27889 25.0229 2.2447 27.3546C3.21051 29.6863 4.62612 31.8049 6.4107 33.5895C8.19529 35.374 10.3139 36.7896 12.6456 37.7555C14.9772 38.7213 17.4763 39.2184 20.0001 39.2184C22.5239 39.2184 25.0229 38.7213 27.3546 37.7555C29.6863 36.7896 31.8049 35.374 33.5895 33.5895C35.374 31.8049 36.7896 29.6863 37.7555 27.3546C38.7213 25.0229 39.2184 22.5239 39.2184 20.0001C39.2184 17.4763 38.7213 14.9772 37.7555 12.6456C36.7896 10.3139 35.374 8.19528 33.5895 6.4107C31.8049 4.62612 29.6863 3.21051 27.3546 2.2447C25.0229 1.27889 22.5239 0.781796 20.0001 0.781796C17.4763 0.781796 14.9772 1.27889 12.6456 2.2447C10.3139 3.21051 8.19529 4.62612 6.4107 6.4107C4.62612 8.19528 3.21051 10.3139 2.2447 12.6456C1.27889 14.9772 0.781799 17.4763 0.781799 20.0001Z" fill="#FDDF6D"/>
<path d="M24.1184 36.3811C13.5045 36.3811 4.90024 27.7769 4.90024 17.1629C4.90024 11.4923 7.35672 6.39602 11.2631 2.87836C5.04117 6.05953 0.781799 12.5323 0.781799 20C0.781799 30.6139 9.38602 39.2182 20 39.2182C24.9433 39.2182 29.4502 37.3512 32.8554 34.2847C30.2342 35.6249 27.2646 36.3811 24.1184 36.3811Z" fill="#FCC56B"/>
<path d="M11.0779 14.0509C11.0779 14.783 11.2221 15.508 11.5023 16.1844C11.7825 16.8607 12.1931 17.4753 12.7108 17.993C13.2285 18.5107 13.8431 18.9213 14.5194 19.2015C15.1958 19.4817 15.9208 19.6259 16.6529 19.6259C17.385 19.6259 18.1099 19.4817 18.7863 19.2015C19.4627 18.9213 20.0773 18.5107 20.5949 17.993C21.1126 17.4753 21.5233 16.8607 21.8034 16.1844C22.0836 15.508 22.2278 14.783 22.2278 14.0509C22.2278 13.3188 22.0836 12.5939 21.8034 11.9175C21.5233 11.2411 21.1126 10.6265 20.5949 10.1089C20.0773 9.59119 19.4627 9.18055 18.7863 8.90038C18.1099 8.62021 17.385 8.47601 16.6529 8.47601C15.9208 8.47601 15.1958 8.62021 14.5194 8.90038C13.8431 9.18055 13.2285 9.59119 12.7108 10.1089C12.1931 10.6265 11.7825 11.2411 11.5023 11.9175C11.2221 12.5939 11.0779 13.3188 11.0779 14.0509Z" fill="white"/>
<path d="M26.7123 14.0509C26.7123 14.783 26.8565 15.508 27.1367 16.1844C27.4169 16.8607 27.8275 17.4753 28.3452 17.993C28.8629 18.5107 29.4775 18.9213 30.1538 19.2015C30.8302 19.4817 31.5552 19.6259 32.2873 19.6259C33.0194 19.6259 33.7443 19.4817 34.4207 19.2015C35.0971 18.9213 35.7116 18.5107 36.2293 17.993C36.747 17.4753 37.1577 16.8607 37.4378 16.1844C37.718 15.508 37.8622 14.783 37.8622 14.0509C37.8622 13.3188 37.718 12.5939 37.4378 11.9175C37.1577 11.2411 36.747 10.6265 36.2293 10.1089C35.7116 9.59119 35.0971 9.18055 34.4207 8.90038C33.7443 8.62021 33.0194 8.47601 32.2873 8.47601C31.5552 8.47601 30.8302 8.62021 30.1538 8.90038C29.4775 9.18055 28.8629 9.59119 28.3452 10.1089C27.8275 10.6265 27.4169 11.2411 27.1367 11.9175C26.8565 12.5939 26.7123 13.3188 26.7123 14.0509Z" fill="white"/>
<path d="M11.7413 21.7408C10.3141 21.7408 9.15704 22.8978 9.15704 24.3251H14.3256C14.3254 22.8977 13.1684 21.7408 11.7413 21.7408ZM34.2824 21.3945C32.8552 21.3945 31.6981 22.5515 31.6981 23.9788H36.8667C36.8667 22.5515 35.7097 21.3945 34.2824 21.3945Z" fill="#F9A880"/>
<path d="M13.6912 11.1363C13.6912 11.551 13.856 11.9488 14.1492 12.242C14.4425 12.5353 14.8402 12.7 15.2549 12.7C15.6696 12.7 16.0673 12.5353 16.3606 12.242C16.6538 11.9488 16.8186 11.551 16.8186 11.1363C16.8186 10.7216 16.6538 10.3239 16.3606 10.0306C16.0673 9.7374 15.6696 9.57265 15.2549 9.57265C14.8402 9.57265 14.4425 9.7374 14.1492 10.0306C13.856 10.3239 13.6912 10.7216 13.6912 11.1363Z" fill="#7F184C"/>
<path d="M29.554 11.0279C29.554 11.4426 29.7187 11.8403 30.0119 12.1336C30.3052 12.4268 30.7029 12.5916 31.1176 12.5916C31.5323 12.5916 31.9301 12.4268 32.2233 12.1336C32.5166 11.8403 32.6813 11.4426 32.6813 11.0279C32.6813 10.6132 32.5166 10.2155 32.2233 9.92221C31.9301 9.62896 31.5323 9.46422 31.1176 9.46422C30.7029 9.46422 30.3052 9.62896 30.0119 9.92221C29.7187 10.2155 29.554 10.6132 29.554 11.0279Z" fill="#7F184C"/>
<path d="M21.6167 32.1198C21.4753 32.1199 21.3366 32.0814 21.2154 32.0085C20.8451 31.7865 20.7249 31.3063 20.9469 30.9359C22.0247 29.1384 23.9443 28.0216 25.9565 28.0216C26.5626 28.0211 27.165 28.1171 27.741 28.3061C28.1513 28.4408 28.3746 28.8826 28.2398 29.2929C28.1051 29.703 27.6633 29.9266 27.253 29.7916C26.8345 29.6544 26.3969 29.5848 25.9565 29.5852C24.4905 29.5852 23.085 30.4109 22.2882 31.7399C22.2186 31.8559 22.1202 31.9519 22.0025 32.0185C21.8849 32.085 21.7519 32.12 21.6167 32.1198Z" fill="#7F184C"/>
<path d="M38.1472 11.5883C38.064 11.3912 37.9708 11.1984 37.8681 11.0107C37.8323 10.9398 37.7982 10.8681 37.7617 10.7977C37.7277 10.7324 37.6845 10.6722 37.6335 10.619C36.5013 8.86164 34.5286 7.69453 32.2873 7.69453C28.7821 7.69453 25.9305 10.5461 25.9305 14.0513C25.9305 17.5563 28.7821 20.4079 32.2873 20.4079C34.8964 20.4079 37.1424 18.8273 38.1207 16.5739C38.3298 17.692 38.4365 18.8354 38.4365 20C38.4365 30.1659 30.166 38.4362 20.0002 38.4362C9.8343 38.4362 1.56367 30.1659 1.56367 20C1.56367 9.83406 9.83406 1.56367 20 1.56367C22.8608 1.56367 25.6021 2.2007 28.148 3.45703C28.5349 3.64812 29.004 3.48922 29.195 3.10195C29.3861 2.71469 29.2271 2.24594 28.8398 2.05484C26.077 0.691328 23.1029 0 20 0C8.97187 0 0 8.97187 0 20C0 31.028 8.97187 40 20 40C31.0281 40 40 31.0281 40 20.0001C40 17.0958 39.3602 14.2066 38.1472 11.5883ZM37.0802 14.0513C37.0802 16.6942 34.9301 18.8442 32.2871 18.8442C29.6441 18.8442 27.494 16.6941 27.494 14.0513C27.494 11.4084 29.6441 9.25813 32.2871 9.25813C34.0941 9.25813 35.6704 10.2637 36.487 11.7443C36.5619 11.8935 36.6349 12.0436 36.7059 12.1948C36.9537 12.7823 37.081 13.4136 37.0802 14.0513Z" fill="black"/>
<path d="M16.6533 7.69453C13.1482 7.69453 10.2966 10.5461 10.2966 14.0512C10.2966 17.5563 13.1482 20.4079 16.6533 20.4079C20.1585 20.4079 23.0101 17.5563 23.0101 14.0512C23.0101 10.5461 20.1584 7.69453 16.6533 7.69453ZM16.6533 18.8442C14.0104 18.8442 11.8602 16.6941 11.8602 14.0512C11.8602 11.4084 14.0104 9.25812 16.6533 9.25812C19.2963 9.25812 21.4465 11.4084 21.4465 14.0512C21.4465 16.6941 19.2962 18.8442 16.6533 18.8442ZM21.2155 32.0086C21.3035 32.0614 21.4011 32.0964 21.5027 32.1115C21.6043 32.1265 21.7078 32.1215 21.8074 32.0965C21.907 32.0716 22.0007 32.0272 22.0832 31.966C22.1657 31.9049 22.2353 31.828 22.288 31.7399C23.0848 30.4108 24.4904 29.5852 25.9563 29.5852C26.4 29.5852 26.8362 29.6547 27.2528 29.7916C27.663 29.9266 28.1049 29.703 28.2397 29.293C28.3744 28.8827 28.1513 28.4409 27.7411 28.3061C27.1651 28.117 26.5626 28.021 25.9563 28.0216C23.944 28.0216 22.0246 29.1384 20.9468 30.9359C20.7249 31.3063 20.8451 31.7866 21.2155 32.0086Z" fill="black"/>
<path d="M30.1273 4.1718C30.1273 4.37914 30.2097 4.57799 30.3563 4.72461C30.5029 4.87123 30.7018 4.95359 30.9091 4.95359C31.1165 4.95359 31.3153 4.87123 31.4619 4.72461C31.6085 4.57799 31.6909 4.37914 31.6909 4.1718C31.6909 3.96445 31.6085 3.7656 31.4619 3.61898C31.3153 3.47237 31.1165 3.39 30.9091 3.39C30.7018 3.39 30.5029 3.47237 30.3563 3.61898C30.2097 3.7656 30.1273 3.96445 30.1273 4.1718Z" fill="black"/>
</svg>
