<svg width="40" height="40" viewBox="0 0 40 40" fill="none" xmlns="http://www.w3.org/2000/svg">
<path d="M2.20886 18.5149C2.20886 20.8512 2.66904 23.1647 3.56313 25.3232C4.45722 27.4818 5.7677 29.443 7.41976 31.0951C9.07182 32.7472 11.0331 34.0577 13.1916 34.9517C15.3501 35.8458 17.6636 36.306 20 36.306C22.3364 36.306 24.6498 35.8458 26.8084 34.9517C28.9669 34.0577 30.9282 32.7472 32.5802 31.0951C34.2323 29.443 35.5428 27.4818 36.4369 25.3232C37.3309 23.1647 37.7911 20.8512 37.7911 18.5149C37.7911 16.1785 37.3309 13.865 36.4369 11.7065C35.5428 9.54799 34.2323 7.58671 32.5802 5.93465C30.9282 4.28259 28.9669 2.97211 26.8084 2.07802C24.6498 1.18393 22.3364 0.723751 20 0.723751C17.6636 0.723751 15.3501 1.18393 13.1916 2.07802C11.0331 2.97211 9.07182 4.28259 7.41976 5.93465C5.7677 7.58671 4.45722 9.54799 3.56313 11.7065C2.66904 13.865 2.20886 16.1785 2.20886 18.5149Z" fill="#FDDF6D"/>
<path d="M23.8126 33.6794C13.9869 33.6794 6.02157 25.7141 6.02157 15.8884C6.02157 10.6388 8.29564 5.92111 11.9119 2.66462C6.15204 5.60954 2.20898 11.6017 2.20898 18.5148C2.20898 28.3405 10.1742 36.3058 20 36.3058C24.5763 36.3058 28.7484 34.5774 31.9008 31.7387C29.4742 32.9794 26.7251 33.6794 23.8126 33.6794Z" fill="#FCC56B"/>
<path d="M25.4204 13.0075C25.4204 13.5354 25.5244 14.058 25.7264 14.5457C25.9284 15.0333 26.2244 15.4764 26.5977 15.8497C26.9709 16.2229 27.414 16.519 27.9016 16.721C28.3893 16.9229 28.912 17.0269 29.4398 17.0269C29.9676 17.0269 30.4903 16.9229 30.9779 16.721C31.4656 16.519 31.9087 16.2229 32.2819 15.8497C32.6552 15.4764 32.9512 15.0333 33.1532 14.5457C33.3552 14.058 33.4592 13.5354 33.4592 13.0075C33.4592 12.4797 33.3552 11.957 33.1532 11.4694C32.9512 10.9817 32.6552 10.5386 32.2819 10.1654C31.9087 9.79216 31.4656 9.49609 30.9779 9.2941C30.4903 9.09211 29.9676 8.98814 29.4398 8.98814C28.912 8.98814 28.3893 9.09211 27.9016 9.2941C27.414 9.49609 26.9709 9.79216 26.5977 10.1654C26.2244 10.5386 25.9284 10.9817 25.7264 11.4694C25.5244 11.957 25.4204 12.4797 25.4204 13.0075Z" fill="white"/>
<path d="M28.6678 13.0075C28.6678 13.3914 28.8203 13.7596 29.0917 14.0311C29.3632 14.3025 29.7314 14.455 30.1153 14.455C30.4992 14.455 30.8674 14.3025 31.1388 14.0311C31.4103 13.7596 31.5628 13.3914 31.5628 13.0075C31.5628 12.6236 31.4103 12.2554 31.1388 11.984C30.8674 11.7125 30.4992 11.56 30.1153 11.56C29.7314 11.56 29.3632 11.7125 29.0917 11.984C28.8203 12.2554 28.6678 12.6236 28.6678 13.0075Z" fill="#7F184C"/>
<path d="M19.1951 14.9915C19.066 14.9917 18.9392 14.9573 18.8279 14.8919C18.7166 14.8266 18.6248 14.7326 18.5621 14.6198C18.0977 13.7862 17.2173 13.2684 16.2643 13.2684C15.3349 13.2684 14.4425 13.7939 13.9353 14.6398C13.7297 14.9827 13.2851 15.0939 12.9424 14.8884C12.8609 14.8395 12.7898 14.7751 12.7332 14.6987C12.6765 14.6224 12.6355 14.5356 12.6124 14.4434C12.5893 14.3512 12.5846 14.2554 12.5986 14.1614C12.6126 14.0674 12.6449 13.977 12.6938 13.8955C13.461 12.6158 14.8291 11.8209 16.2643 11.8209C17.742 11.8209 19.107 12.6234 19.8266 13.9155C20.0212 14.2646 19.8957 14.7055 19.5465 14.9C19.4391 14.96 19.3181 14.9915 19.1951 14.9915ZM23.456 30.8887C19.4788 30.8887 16.2545 27.6645 16.2545 23.6872H30.6574C30.6575 27.6645 27.4333 30.8887 23.456 30.8887Z" fill="#7F184C"/>
<path d="M18.0117 23.6872V24.8113C18.0117 25.2853 18.396 25.6695 18.8699 25.6695H28.0421C28.5161 25.6695 28.9003 25.2852 28.9003 24.8113V23.6872H18.0117Z" fill="#F2F2F2"/>
<path d="M25.5936 27.2879H20.5332V27.2963C19.5594 27.3431 18.6082 27.606 17.7487 28.066C18.257 28.7285 18.8762 29.2982 19.5787 29.7497C20.1687 30.1287 20.5333 30.7744 20.5333 31.4757V35.235C20.5333 37.4669 22.3426 39.2761 24.5744 39.2761C26.8063 39.2761 28.6155 37.4668 28.6155 35.235V30.3097C28.6156 28.6409 27.2626 27.2879 25.5936 27.2879Z" fill="#FC4C59"/>
<path d="M24.5586 37.6529C24.4636 37.6529 24.3695 37.6342 24.2817 37.5978C24.1939 37.5614 24.1141 37.5081 24.0469 37.4409C23.9797 37.3737 23.9264 37.2939 23.89 37.2061C23.8536 37.1183 23.8349 37.0242 23.8349 36.9291V30.052C23.8349 29.9715 23.6462 29.7744 23.4743 29.6754C23.1247 29.4818 23.0005 29.0428 23.1941 28.6931C23.3877 28.3434 23.8307 28.2182 24.1804 28.4117C24.2932 28.4741 25.2823 29.0504 25.2823 30.052V36.9291C25.2824 37.3288 24.9583 37.6529 24.5586 37.6529Z" fill="#BC3B4A"/>
<path d="M20 0C9.79087 0 1.48523 8.30564 1.48523 18.5148C1.48523 28.7239 9.79087 37.0294 20 37.0294C20.0534 37.0294 20.1071 37.0284 20.1608 37.0279C20.8707 38.7691 22.581 39.9999 24.5744 39.9999C27.2018 39.9999 29.3393 37.8624 29.3393 35.2351V30.3098C29.3393 29.9169 29.2782 29.5383 29.1654 29.1822C30.5789 27.7118 31.3811 25.7365 31.3811 23.6871C31.3812 23.592 31.3624 23.4979 31.3261 23.4101C31.2897 23.3223 31.2364 23.2425 31.1692 23.1753C31.102 23.1081 31.0222 23.0548 30.9344 23.0184C30.8466 22.982 30.7524 22.9633 30.6574 22.9633H16.2545C16.0625 22.9633 15.8784 23.0396 15.7427 23.1753C15.607 23.311 15.5307 23.4951 15.5307 23.6871C15.5307 26.3595 16.8643 28.8346 19.0981 30.3076C19.1143 30.3183 19.1314 30.3263 19.1482 30.3355C19.563 30.6322 19.8092 31.114 19.8092 31.6369V35.2349C19.8092 35.3509 19.8149 35.4655 19.8231 35.5795C10.4934 35.4842 2.9325 27.8664 2.9325 18.5146C2.93273 9.10392 10.589 1.4475 20 1.4475C29.4109 1.4475 37.0672 9.10385 37.0672 18.5147C37.0672 22.6067 35.5971 26.5643 32.9276 29.6582C32.6665 29.9608 32.7002 30.4179 33.0028 30.679C33.3054 30.94 33.7625 30.9062 34.0236 30.6038C36.9197 27.2472 38.5147 22.9539 38.5147 18.5148C38.5148 8.30564 30.2091 0 20 0ZM27.8917 35.2352C27.8917 37.0644 26.4036 38.5526 24.5743 38.5526C23.0604 38.5526 21.781 37.5328 21.3846 36.1444C21.378 36.1119 21.3691 36.0798 21.3581 36.0484C21.2909 35.7826 21.2569 35.5094 21.2569 35.2352V31.6372C21.2569 30.6071 20.7493 29.6568 19.8992 29.0947C19.5594 28.8703 19.2414 28.6144 18.9494 28.3304C19.4716 28.1511 20.0165 28.0464 20.5679 28.0193C20.5932 28.018 20.6182 28.0155 20.6427 28.0118H25.5936C26.8608 28.0118 27.8918 29.0428 27.8918 30.31V35.2354H27.8917V35.2352ZM29.8928 24.411C29.7496 25.6765 29.2336 26.8762 28.4162 27.8517C27.729 27.0636 26.7189 26.5642 25.5936 26.5642H20.5332C20.4823 26.5642 20.4327 26.5696 20.3848 26.5797C19.5611 26.6324 18.7442 26.8301 17.9842 27.154C17.4579 26.325 17.1276 25.3869 17.0185 24.411H29.8928Z" fill="black"/>
<path d="M34.1825 13.0078C34.1825 10.3923 32.0548 8.26463 29.4394 8.26463C26.824 8.26463 24.6963 10.3924 24.6963 13.0078C24.6963 15.6232 26.824 17.7509 29.4394 17.7509C32.0548 17.7509 34.1825 15.6233 34.1825 13.0078ZM29.4394 16.3035C27.6222 16.3035 26.1438 14.825 26.1438 13.0078C26.1438 11.1906 27.6222 9.71221 29.4394 9.71221C31.2566 9.71221 32.735 11.1906 32.735 13.0078C32.735 14.825 31.2566 16.3035 29.4394 16.3035ZM16.2643 11.8209C14.8291 11.8209 13.461 12.6158 12.6938 13.8955C12.645 13.977 12.6126 14.0674 12.5987 14.1614C12.5847 14.2554 12.5894 14.3512 12.6125 14.4434C12.6356 14.5356 12.6766 14.6224 12.7332 14.6987C12.7898 14.7751 12.8609 14.8395 12.9424 14.8884C13.0239 14.9373 13.1143 14.9696 13.2083 14.9836C13.3023 14.9975 13.3982 14.9928 13.4904 14.9697C13.5826 14.9466 13.6693 14.9056 13.7456 14.849C13.822 14.7924 13.8864 14.7213 13.9353 14.6398C14.4424 13.7939 15.3348 13.2684 16.2643 13.2684C17.2173 13.2684 18.0977 13.7862 18.5621 14.6198C18.6083 14.7029 18.6704 14.7761 18.7449 14.8352C18.8194 14.8942 18.9048 14.938 18.9963 14.964C19.0877 14.9901 19.1834 14.9978 19.2779 14.9868C19.3723 14.9758 19.4636 14.9463 19.5467 14.9C19.6297 14.8537 19.7028 14.7916 19.7618 14.7171C19.8208 14.6426 19.8646 14.5572 19.8906 14.4657C19.9166 14.3743 19.9244 14.2787 19.9134 14.1843C19.9024 14.0899 19.873 13.9985 19.8267 13.9155C19.107 12.6235 17.742 11.8209 16.2643 11.8209Z" fill="black"/>
<path d="M30.9192 31.9586C30.9192 32.1505 30.9954 32.3346 31.1312 32.4703C31.2669 32.6061 31.451 32.6823 31.6429 32.6823C31.8349 32.6823 32.019 32.6061 32.1547 32.4703C32.2904 32.3346 32.3667 32.1505 32.3667 31.9586C32.3667 31.7666 32.2904 31.5825 32.1547 31.4468C32.019 31.3111 31.8349 31.2348 31.6429 31.2348C31.451 31.2348 31.2669 31.3111 31.1312 31.4468C30.9954 31.5825 30.9192 31.7666 30.9192 31.9586Z" fill="black"/>
<path d="M12.3546 18.7164C11.0334 18.7164 9.96228 19.7875 9.96228 21.1087H14.747C14.7468 19.7875 13.6757 18.7164 12.3546 18.7164ZM33.2217 18.7164C31.9005 18.7164 30.8294 19.7875 30.8294 21.1087H35.6141C35.6141 19.7875 34.543 18.7164 33.2217 18.7164Z" fill="#F9A880"/>
</svg>
